<svg width="831" height="581" viewBox="0 0 831 581" fill="none" xmlns="http://www.w3.org/2000/svg">
<path d="M488.029 579.514C486.399 580.456 484.264 580.927 482.127 580.929C479.981 580.931 477.834 580.46 476.197 579.514C474.563 578.571 473.746 577.335 473.746 576.099L473.747 477.238L490.48 477.238L490.48 576.099C490.48 577.335 489.663 578.571 488.029 579.514Z" fill="black" stroke="#13162C" stroke-width="2" stroke-linecap="round" stroke-linejoin="round"/>
<path d="M476.135 473.796C472.843 475.697 472.843 478.778 476.135 480.678C479.427 482.579 484.763 482.579 488.055 480.678C491.346 478.778 491.346 475.697 488.055 473.796C484.763 471.896 479.427 471.896 476.135 473.796Z" fill="black" stroke="#13162C" stroke-width="2" stroke-linecap="round" stroke-linejoin="round"/>
<path d="M241.982 437.791C238.715 439.677 233.417 439.677 230.15 437.791C228.516 436.847 227.699 435.611 227.699 434.375L227.7 335.514L244.434 335.514L244.433 434.375C244.433 435.611 243.616 436.847 241.982 437.791Z" fill="black" stroke="#13162C" stroke-width="2" stroke-linecap="round" stroke-linejoin="round"/>
<path d="M230.092 332.073C226.8 333.973 226.8 337.054 230.092 338.955C233.384 340.855 238.72 340.855 242.012 338.955C245.303 337.054 245.303 333.973 242.012 332.073C238.72 330.172 233.384 330.172 230.092 332.073Z" fill="black" stroke="#13162C" stroke-width="2" stroke-linecap="round" stroke-linejoin="round"/>
<path d="M324.061 484.869C320.793 486.756 315.495 486.756 312.228 484.869C310.594 483.926 309.777 482.69 309.777 481.454L309.778 382.592L326.512 382.592L326.511 481.454C326.511 482.69 325.694 483.926 324.061 484.869Z" fill="black" stroke="#13162C" stroke-width="2" stroke-linecap="round" stroke-linejoin="round"/>
<path d="M312.17 379.151C308.879 381.052 308.879 384.133 312.17 386.033C315.462 387.934 320.798 387.934 324.09 386.033C327.381 384.133 327.381 381.052 324.09 379.151C320.798 377.251 315.462 377.251 312.17 379.151Z" fill="black" stroke="#13162C" stroke-width="2" stroke-linecap="round" stroke-linejoin="round"/>
<path d="M78.0098 343.146C74.7423 345.032 69.4446 345.032 66.1771 343.146C64.5433 342.202 63.7265 340.966 63.7265 339.73L63.727 240.869L80.4609 240.869L80.4604 339.73C80.4604 340.966 79.6435 342.202 78.0098 343.146Z" fill="black" stroke="#13162C" stroke-width="2" stroke-linecap="round" stroke-linejoin="round"/>
<path d="M66.1194 237.428C62.8278 239.328 62.8278 242.409 66.1194 244.31C69.4109 246.21 74.7476 246.21 78.0391 244.31C81.3307 242.409 81.3307 239.328 78.0391 237.428C74.7476 235.528 69.4109 235.528 66.1194 237.428Z" fill="black" stroke="#13162C" stroke-width="2" stroke-linecap="round" stroke-linejoin="round"/>
<path d="M406.029 532.436C402.762 534.322 397.464 534.322 394.197 532.436C392.563 531.492 391.746 530.256 391.746 529.02L391.747 430.159L408.48 430.159L408.48 529.02C408.48 530.256 407.663 531.492 406.029 532.436Z" fill="black" stroke="#13162C" stroke-width="2" stroke-linecap="round" stroke-linejoin="round"/>
<path d="M394.131 426.718C390.84 428.618 390.84 431.699 394.131 433.6C397.423 435.5 402.759 435.5 406.051 433.6C409.342 431.699 409.342 428.618 406.051 426.718C402.759 424.818 397.423 424.818 394.131 426.718Z" fill="black" stroke="#13162C" stroke-width="2" stroke-linecap="round" stroke-linejoin="round"/>
<path d="M159.963 390.712C156.695 392.599 151.398 392.599 148.13 390.712C146.496 389.769 145.68 388.533 145.68 387.296L145.68 288.435L162.414 288.435L162.414 387.296C162.414 388.533 161.597 389.769 159.963 390.712Z" fill="black" stroke="#13162C" stroke-width="2" stroke-linecap="round" stroke-linejoin="round"/>
<path d="M148.072 284.994C144.781 286.895 144.781 289.976 148.072 291.876C151.364 293.777 156.701 293.777 159.992 291.876C163.284 289.976 163.284 286.895 159.992 284.994C156.701 283.094 151.364 283.094 148.072 284.994Z" fill="black" stroke="#13162C" stroke-width="2" stroke-linecap="round" stroke-linejoin="round"/>
<path d="M455.769 494.076L455.77 470.191L538.891 478.296L538.891 502.378L504.336 522.311L455.769 494.076Z" fill="black" stroke="#13162C" stroke-width="2" stroke-linecap="round" stroke-linejoin="round"/>
<path d="M504.484 498.047V521.938" stroke="#13162C" stroke-width="2"/>
<path d="M766.221 417.178C762.953 419.065 757.656 419.065 754.388 417.178C752.754 416.235 751.937 414.999 751.937 413.763L751.938 314.902L768.672 314.902L768.671 413.763C768.671 414.999 767.854 416.235 766.221 417.178Z" fill="black" stroke="#13162C" stroke-width="2" stroke-linecap="round" stroke-linejoin="round"/>
<path d="M754.33 311.461C751.039 313.361 751.039 316.442 754.33 318.343C757.622 320.243 762.959 320.243 766.25 318.343C769.542 316.442 769.542 313.361 766.25 311.461C762.959 309.56 757.622 309.56 754.33 311.461Z" fill="black" stroke="#13162C" stroke-width="2" stroke-linecap="round" stroke-linejoin="round"/>
<path d="M372.593 445.9L372.594 422.015L455.715 430.119L455.715 454.202L421.16 474.134L372.593 445.9Z" fill="black" stroke="#13162C" stroke-width="2" stroke-linecap="round" stroke-linejoin="round"/>
<path d="M421.309 449.87V473.762" stroke="#13162C" stroke-width="2"/>
<path d="M289.472 397.723L289.473 373.839L372.594 381.943L372.594 406.026L338.039 425.958L289.472 397.723Z" fill="black" stroke="#13162C" stroke-width="2" stroke-linecap="round" stroke-linejoin="round"/>
<path d="M338.188 401.694V425.586" stroke="#13162C" stroke-width="2"/>
<path d="M206.355 345.644L206.356 321.759L289.476 329.864L289.477 353.946L254.922 373.879L206.355 345.644Z" fill="black" stroke="#13162C" stroke-width="2" stroke-linecap="round" stroke-linejoin="round"/>
<path d="M255.07 349.615V373.507" stroke="#13162C" stroke-width="2"/>
<path d="M123.168 297.468L123.168 273.583L206.289 281.688L206.289 305.77L171.734 325.702L123.168 297.468Z" fill="black" stroke="#13162C" stroke-width="2" stroke-linecap="round" stroke-linejoin="round"/>
<path d="M171.883 301.439V325.33" stroke="#13162C" stroke-width="2"/>
<path d="M40.2341 249.291L40.2348 225.407L123.355 233.511L123.355 257.594L88.8007 277.526L40.2341 249.291Z" fill="black" stroke="#13162C" stroke-width="2" stroke-linecap="round" stroke-linejoin="round"/>
<path d="M88.9492 253.262V277.154" stroke="#13162C" stroke-width="2"/>
<path d="M508.473 502.75L16.1925 218.531C11.6083 215.885 9.37378 212.395 9.4892 208.926V177.581L821.508 303.571V335.526C821.384 338.813 819.15 342.079 814.806 344.587L540.86 502.75C531.917 507.913 517.417 507.913 508.473 502.75Z" fill="black" stroke="#13162C" stroke-width="2" stroke-linecap="round" stroke-linejoin="round"/>
<rect width="353.722" height="605.834" rx="18.6986" transform="matrix(-0.866025 0.5 0.866025 0.5 306.332 0)" fill="black" stroke="#13162C" stroke-width="2" stroke-linecap="round" stroke-linejoin="round"/>
<rect width="197.709" height="152.302" transform="matrix(-0.866025 -0.5 -0.866025 0.5 409.047 146.808)" stroke="#13162C" stroke-width="2" stroke-linecap="round" stroke-linejoin="round"/>
<rect width="163.334" height="10.3781" transform="matrix(-0.866025 -0.5 -0.866025 0.5 371.68 144.967)" fill="black" stroke="#13162C" stroke-width="2" stroke-linecap="round" stroke-linejoin="round"/>
<rect width="163.334" height="10.3781" transform="matrix(-0.866025 -0.5 -0.866025 0.5 335.816 165.457)" fill="black" stroke="#13162C" stroke-width="2" stroke-linecap="round" stroke-linejoin="round"/>
<rect width="163.334" height="10.3781" transform="matrix(-0.866025 -0.5 -0.866025 0.5 300.086 185.947)" fill="black" stroke="#13162C" stroke-width="2" stroke-linecap="round" stroke-linejoin="round"/>
<rect width="163.334" height="10.3781" transform="matrix(-0.866025 -0.5 -0.866025 0.5 353.867 155.212)" fill="black" stroke="#13162C" stroke-width="2" stroke-linecap="round" stroke-linejoin="round"/>
<rect width="163.334" height="10.3781" transform="matrix(-0.866025 -0.5 -0.866025 0.5 318.016 175.702)" fill="black" stroke="#13162C" stroke-width="2" stroke-linecap="round" stroke-linejoin="round"/>
<rect width="163.334" height="10.3781" transform="matrix(-0.866025 -0.5 -0.866025 0.5 282.16 196.192)" fill="black" stroke="#13162C" stroke-width="2" stroke-linecap="round" stroke-linejoin="round"/>
<path d="M243.824 191.057L116.894 117.774L116.894 96.9622L353.792 106.902L353.792 127.567L243.824 191.057Z" fill="black"/>
<path d="M243.824 191.057L116.894 117.774L116.894 96.9622L353.792 106.902L353.792 127.567L243.824 191.057ZM243.824 191.057L243.824 170.385" stroke="#13162C" stroke-width="2" stroke-linecap="round" stroke-linejoin="round"/>
<rect width="146.565" height="126.98" transform="matrix(-0.866025 -0.5 -0.866025 0.5 353.789 106.823)" fill="black" stroke="#13162C" stroke-width="2" stroke-linecap="round" stroke-linejoin="round"/>
<rect width="67.8196" height="66.4664" transform="matrix(-0.866025 -0.5 -0.866025 0.5 549.512 272.809)" fill="black" stroke="#13162C" stroke-width="2" stroke-linecap="round" stroke-linejoin="round"/>
<path d="M491.364 299.668L443.832 272.226L443.832 266.372L538.895 266.372L538.895 272.226L491.364 299.668Z" fill="black"/>
<path d="M491.364 299.668L443.832 272.226L443.832 266.372L538.895 266.372L538.895 272.226L491.364 299.668ZM491.364 299.668L491.364 293.875" stroke="#13162C" stroke-width="2" stroke-linecap="round" stroke-linejoin="round"/>
<rect width="54.8843" height="54.8843" transform="matrix(-0.866025 -0.5 -0.866025 0.5 538.891 266.372)" fill="black" stroke="#13162C" stroke-width="2" stroke-linecap="round" stroke-linejoin="round"/>
<rect width="40.7254" height="48.7321" rx="18.6986" transform="matrix(-0.866025 0.5 0.866025 0.5 68.7695 175.84)" fill="black" stroke="#13162C" stroke-width="2" stroke-linecap="round" stroke-linejoin="round"/>
<rect width="40.7254" height="45.742" rx="18.6986" transform="matrix(-0.866025 0.5 0.866025 0.5 151.559 223.643)" fill="black" stroke="#13162C" stroke-width="2" stroke-linecap="round" stroke-linejoin="round"/>
<rect width="40.7254" height="46.1604" rx="18.6986" transform="matrix(-0.866025 0.5 0.866025 0.5 232.516 270.379)" fill="black" stroke="#13162C" stroke-width="2" stroke-linecap="round" stroke-linejoin="round"/>
<rect width="40.7254" height="46.1655" rx="18.6986" transform="matrix(-0.866025 0.5 0.866025 0.5 314.871 317.928)" fill="black" stroke="#13162C" stroke-width="2" stroke-linecap="round" stroke-linejoin="round"/>
<rect width="40.7254" height="47.0483" rx="18.6986" transform="matrix(-0.866025 0.5 0.866025 0.5 397.844 365.832)" fill="black" stroke="#13162C" stroke-width="2" stroke-linecap="round" stroke-linejoin="round"/>
<rect width="40.7254" height="44.7199" rx="18.6986" transform="matrix(-0.866025 0.5 0.866025 0.5 481.477 414.117)" fill="black" stroke="#13162C" stroke-width="2" stroke-linecap="round" stroke-linejoin="round"/>
<path d="M492 440.298C486.515 443.465 477.622 443.465 472.138 440.298C468.719 438.325 467.431 435.587 468.274 433.037L477.782 412.364H486.319L495.863 433.037C496.706 435.587 495.418 438.325 492 440.298Z" fill="black" stroke="#13162C" stroke-width="2" stroke-linecap="round" stroke-linejoin="round"/>
<circle r="3.56671" transform="matrix(-0.866025 -0.5 -0.866025 0.5 482.072 412.394)" fill="black" stroke="#13162C" stroke-width="2" stroke-linecap="round" stroke-linejoin="round"/>
<path d="M410 392.244C404.515 395.411 395.622 395.411 390.138 392.244C386.719 390.27 385.431 387.533 386.274 384.983L395.782 364.31H404.319L413.863 384.983C414.706 387.533 413.418 390.27 410 392.244Z" fill="black" stroke="#13162C" stroke-width="2" stroke-linecap="round" stroke-linejoin="round"/>
<circle r="3.56671" transform="matrix(-0.866025 -0.5 -0.866025 0.5 400.072 364.34)" fill="black" stroke="#13162C" stroke-width="2" stroke-linecap="round" stroke-linejoin="round"/>
<path d="M328.047 344.19C322.562 347.357 313.669 347.357 308.185 344.19C304.766 342.216 303.478 339.479 304.321 336.929L313.828 316.256H322.366L331.91 336.929C332.753 339.479 331.465 342.216 328.047 344.19Z" fill="black" stroke="#13162C" stroke-width="2" stroke-linecap="round" stroke-linejoin="round"/>
<circle r="3.56671" transform="matrix(-0.866025 -0.5 -0.866025 0.5 318.119 316.286)" fill="black" stroke="#13162C" stroke-width="2" stroke-linecap="round" stroke-linejoin="round"/>
<path d="M245.961 296.623C240.476 299.79 231.583 299.79 226.099 296.623C222.68 294.65 221.392 291.912 222.235 289.362L231.743 268.689H240.28L249.824 289.362C250.667 291.912 249.379 294.65 245.961 296.623Z" fill="black" stroke="#13162C" stroke-width="2" stroke-linecap="round" stroke-linejoin="round"/>
<circle r="3.56671" transform="matrix(-0.866025 -0.5 -0.866025 0.5 236.033 268.719)" fill="black" stroke="#13162C" stroke-width="2" stroke-linecap="round" stroke-linejoin="round"/>
<path d="M164 249.057C158.515 252.224 149.622 252.224 144.138 249.057C140.719 247.083 139.431 244.346 140.274 241.796L149.782 221.123H158.319L167.863 241.796C168.706 244.346 167.418 247.083 164 249.057Z" fill="black" stroke="#13162C" stroke-width="2" stroke-linecap="round" stroke-linejoin="round"/>
<circle r="3.56671" transform="matrix(-0.866025 -0.5 -0.866025 0.5 154.072 221.153)" fill="black" stroke="#13162C" stroke-width="2" stroke-linecap="round" stroke-linejoin="round"/>
<path d="M82.0388 202.954C76.554 206.121 67.6615 206.121 62.1768 202.954C58.7584 200.981 57.4705 198.243 58.3132 195.693L67.8206 175.02H76.3582L85.9024 195.693C86.745 198.243 85.4572 200.981 82.0388 202.954Z" fill="black" stroke="#13162C" stroke-width="2" stroke-linecap="round" stroke-linejoin="round"/>
<circle r="3.56671" transform="matrix(-0.866025 -0.5 -0.866025 0.5 72.1113 175.05)" fill="black" stroke="#13162C" stroke-width="2" stroke-linecap="round" stroke-linejoin="round"/>
<rect width="40.7254" height="48.7321" rx="18.6986" transform="matrix(-0.866025 0.5 0.866025 0.5 339.438 18.6265)" fill="black" stroke="#13162C" stroke-width="2" stroke-linecap="round" stroke-linejoin="round"/>
<rect width="40.7254" height="45.742" rx="18.6986" transform="matrix(-0.866025 0.5 0.866025 0.5 422.227 66.4301)" fill="black" stroke="#13162C" stroke-width="2" stroke-linecap="round" stroke-linejoin="round"/>
<rect width="40.7254" height="46.1604" rx="18.6986" transform="matrix(-0.866025 0.5 0.866025 0.5 503.184 113.165)" fill="black" stroke="#13162C" stroke-width="2" stroke-linecap="round" stroke-linejoin="round"/>
<rect width="40.7254" height="46.1655" rx="18.6986" transform="matrix(-0.866025 0.5 0.866025 0.5 585.539 160.715)" fill="black" stroke="#13162C" stroke-width="2" stroke-linecap="round" stroke-linejoin="round"/>
<rect width="40.7254" height="47.0483" rx="18.6986" transform="matrix(-0.866025 0.5 0.866025 0.5 668.512 208.619)" fill="black" stroke="#13162C" stroke-width="2" stroke-linecap="round" stroke-linejoin="round"/>
<rect width="40.7254" height="44.7199" rx="18.6986" transform="matrix(-0.866025 0.5 0.866025 0.5 752.145 256.904)" fill="black" stroke="#13162C" stroke-width="2" stroke-linecap="round" stroke-linejoin="round"/>
<path d="M762.672 283.085C757.187 286.252 748.294 286.252 742.81 283.085C739.391 281.112 738.103 278.374 738.946 275.824L748.453 255.151H756.991L766.535 275.824C767.378 278.374 766.09 281.112 762.672 283.085Z" fill="black" stroke="#13162C" stroke-width="2" stroke-linecap="round" stroke-linejoin="round"/>
<circle r="3.56671" transform="matrix(-0.866025 -0.5 -0.866025 0.5 752.744 255.181)" fill="black" stroke="#13162C" stroke-width="2" stroke-linecap="round" stroke-linejoin="round"/>
<path d="M680.668 235.031C675.183 238.197 666.29 238.197 660.806 235.031C657.387 233.057 656.099 230.319 656.942 227.77L666.45 207.097H674.987L684.531 227.77C685.374 230.319 684.086 233.057 680.668 235.031Z" fill="black" stroke="#13162C" stroke-width="2" stroke-linecap="round" stroke-linejoin="round"/>
<circle r="3.56671" transform="matrix(-0.866025 -0.5 -0.866025 0.5 670.74 207.127)" fill="black" stroke="#13162C" stroke-width="2" stroke-linecap="round" stroke-linejoin="round"/>
<path d="M598.711 186.977C593.226 190.143 584.333 190.143 578.849 186.977C575.43 185.003 574.142 182.265 574.985 179.716L584.493 159.042H593.03L602.574 179.716C603.417 182.265 602.129 185.003 598.711 186.977Z" fill="black" stroke="#13162C" stroke-width="2" stroke-linecap="round" stroke-linejoin="round"/>
<circle r="3.56671" transform="matrix(-0.866025 -0.5 -0.866025 0.5 588.783 159.072)" fill="black" stroke="#13162C" stroke-width="2" stroke-linecap="round" stroke-linejoin="round"/>
<path d="M516.629 139.41C511.144 142.577 502.251 142.577 496.767 139.41C493.348 137.437 492.06 134.699 492.903 132.149L502.41 111.476H510.948L520.492 132.149C521.335 134.699 520.047 137.437 516.629 139.41Z" fill="black" stroke="#13162C" stroke-width="2" stroke-linecap="round" stroke-linejoin="round"/>
<circle r="3.56671" transform="matrix(-0.866025 -0.5 -0.866025 0.5 506.701 111.506)" fill="black" stroke="#13162C" stroke-width="2" stroke-linecap="round" stroke-linejoin="round"/>
<path d="M434.668 91.8439C429.183 95.0105 420.29 95.0105 414.806 91.8439C411.387 89.8703 410.099 87.1324 410.942 84.583L420.45 63.9099H428.987L438.531 84.583C439.374 87.1324 438.086 89.8703 434.668 91.8439Z" fill="black" stroke="#13162C" stroke-width="2" stroke-linecap="round" stroke-linejoin="round"/>
<circle r="3.56671" transform="matrix(-0.866025 -0.5 -0.866025 0.5 424.74 63.9396)" fill="black" stroke="#13162C" stroke-width="2" stroke-linecap="round" stroke-linejoin="round"/>
<path d="M352.707 45.7409C347.222 48.9076 338.329 48.9076 332.845 45.7409C329.426 43.7673 328.138 41.0295 328.981 38.48L338.489 17.8069H347.026L356.57 38.48C357.413 41.0295 356.125 43.7673 352.707 45.7409Z" fill="black" stroke="#13162C" stroke-width="2" stroke-linecap="round" stroke-linejoin="round"/>
<circle r="3.56671" transform="matrix(-0.866025 -0.5 -0.866025 0.5 342.779 17.8365)" fill="black" stroke="#13162C" stroke-width="2" stroke-linecap="round" stroke-linejoin="round"/>
<path d="M676.968 303.711L676.968 288.506L729.883 293.666L729.883 308.996L707.885 321.685L676.968 303.711Z" fill="black" stroke="#13162C" stroke-width="2" stroke-linecap="round" stroke-linejoin="round"/>
<path d="M707.98 306.239V321.449" stroke="#13162C" stroke-width="2"/>
<rect width="25.3606" height="35.6088" transform="matrix(0.866025 -0.5 0.866025 0.5 677.047 288.443)" fill="black" stroke="#13162C" stroke-width="2" stroke-linecap="round" stroke-linejoin="round"/>
<path d="M709.035 294.124C707.487 295.018 705.457 295.466 703.427 295.468C701.388 295.47 699.348 295.022 697.792 294.124C696.24 293.228 695.464 292.053 695.464 290.878L695.467 286.168L711.367 286.168L711.364 290.878C711.364 292.053 710.588 293.228 709.035 294.124Z" fill="black" stroke="#13162C" stroke-width="2" stroke-linecap="round" stroke-linejoin="round"/>
<path d="M697.742 282.898C694.615 284.704 694.615 287.632 697.742 289.438C700.87 291.243 705.941 291.243 709.068 289.438C712.196 287.632 712.196 284.704 709.068 282.898C705.941 281.093 700.87 281.093 697.742 282.898Z" fill="black" stroke="#13162C" stroke-width="2" stroke-linecap="round" stroke-linejoin="round"/>
<path d="M512.437 399.698L512.437 384.493L565.352 389.652L565.352 404.983L543.354 417.672L512.437 399.698Z" fill="black" stroke="#13162C" stroke-width="2" stroke-linecap="round" stroke-linejoin="round"/>
<path d="M543.449 402.226V417.435" stroke="#13162C" stroke-width="2"/>
<rect width="25.3606" height="35.6088" transform="matrix(0.866025 -0.5 0.866025 0.5 512.516 384.43)" fill="black" stroke="#13162C" stroke-width="2" stroke-linecap="round" stroke-linejoin="round"/>
<path d="M544.524 390.11C542.975 391.005 540.946 391.453 538.916 391.455C536.877 391.457 534.836 391.009 533.28 390.11C531.728 389.214 530.952 388.039 530.952 386.865L530.955 382.154L546.855 382.154L546.852 386.865C546.852 388.039 546.076 389.214 544.524 390.11Z" fill="black" stroke="#13162C" stroke-width="2" stroke-linecap="round" stroke-linejoin="round"/>
<path d="M533.227 378.885C530.099 380.691 530.099 383.618 533.227 385.424C536.354 387.23 541.425 387.23 544.553 385.424C547.68 383.618 547.68 380.691 544.553 378.885C541.425 377.079 536.354 377.079 533.227 378.885Z" fill="black" stroke="#13162C" stroke-width="2" stroke-linecap="round" stroke-linejoin="round"/>
<path d="M715.672 368.507L715.672 337.862L522.526 312.493L522.526 343.081L641.119 411.551L641.119 380.428" stroke="#13162C" stroke-width="2" stroke-linecap="round" stroke-linejoin="round"/>
<path d="M641.114 380.837L715.667 337.905" stroke="#13162C" stroke-width="2" stroke-linecap="round" stroke-linejoin="round"/>
<rect width="86.0864" height="136.939" transform="matrix(-0.866025 0.5 0.866025 0.5 597.074 269.421)" fill="black" stroke="#13162C" stroke-width="2" stroke-linecap="round" stroke-linejoin="round"/>
<rect width="7.20248" height="28.5807" rx="3.60124" transform="matrix(0.866025 -0.5 0.866025 0.5 647.316 324.98)" fill="black" stroke="#13162C" stroke-width="2" stroke-linecap="round" stroke-linejoin="round"/>
<rect width="7.20248" height="28.5807" rx="3.60124" transform="matrix(0.866025 -0.5 0.866025 0.5 614.754 343.476)" fill="black" stroke="#13162C" stroke-width="2" stroke-linecap="round" stroke-linejoin="round"/>
<rect width="13.7323" height="96.702" transform="matrix(-0.866025 -0.5 -0.866025 0.5 427.031 184.501)" fill="black" stroke="#13162C" stroke-width="2" stroke-linecap="round" stroke-linejoin="round"/>
<rect width="15.609" height="96.702" transform="matrix(-0.866025 -0.5 -0.866025 0.5 452.73 199.336)" fill="black" stroke="#13162C" stroke-width="2" stroke-linecap="round" stroke-linejoin="round"/>
<rect width="15.8336" height="96.702" transform="matrix(-0.866025 -0.5 -0.866025 0.5 480.078 215.127)" fill="black" stroke="#13162C" stroke-width="2" stroke-linecap="round" stroke-linejoin="round"/>
<rect width="91.9548" height="113.926" transform="matrix(-0.866025 -0.5 -0.866025 0.5 494.617 215.529)" stroke="#13162C" stroke-width="2" stroke-linecap="round" stroke-linejoin="round"/>
<rect width="191.185" height="211.047" transform="matrix(-0.866025 -0.5 -0.866025 0.5 622.613 240.864)" stroke="#13162C" stroke-width="2" stroke-linecap="round" stroke-linejoin="round"/>
<circle r="5.76043" transform="matrix(-0.866025 0.5 0.866025 0.5 244.492 153.338)" fill="black" stroke="#13162C" stroke-width="2" stroke-linecap="round" stroke-linejoin="round"/>
<path d="M416.414 251.655L351.992 214.46L351.992 197.34L459.588 209.658L459.588 226.728L416.414 251.655Z" fill="black"/>
<path d="M416.414 251.655L351.992 214.46L351.992 197.34L459.588 209.658L459.588 226.728L416.414 251.655ZM416.414 251.655L416.414 234.844" stroke="#13162C" stroke-width="2" stroke-linecap="round" stroke-linejoin="round"/>
<rect width="74.3885" height="49.8532" transform="matrix(-0.866025 -0.5 -0.866025 0.5 459.59 209.643)" fill="black" stroke="#13162C" stroke-width="2" stroke-linecap="round" stroke-linejoin="round"/>
<defs>
</defs>
</svg>
