<svg width="631" height="542" viewBox="0 0 631 542" fill="none" xmlns="http://www.w3.org/2000/svg">
<mask id="path-1-inside-1_369_4" fill="white">
<path fill-rule="evenodd" clip-rule="evenodd" d="M61.5326 34.904C62.6551 34.8714 63.774 34.9912 64.8666 35.2776L184.531 66.649C184.714 66.697 184.895 66.7495 185.075 66.8065C197.423 70.7275 211.043 70.9123 224.683 67.3682C226.977 66.405 229.319 65.5936 231.697 64.9464L352.234 12.8458C353.381 12.5337 354.504 12.3774 355.588 12.3645C361.886 12.2468 371.302 35.0522 371.743 42.1923C372.26 50.5441 366.371 59.0481 358.59 61.1866L235.055 95.138L230.051 96.6316C229.614 96.762 229.178 96.8895 228.741 97.0142C219.587 101.508 212.46 111.182 210.799 121.966L208.853 134.598C207.688 142.158 208.492 149.529 211.168 155.827L245.556 236.775C249.054 245.008 259.367 245.882 266.474 238.547L316.915 155.827C323.115 149.43 338.123 147.338 344.564 167.229C350.598 181.436 350.764 190.169 344.564 196.567L283.604 259.474C261.846 281.928 230.274 279.253 219.567 254.05L188.013 179.773L133.378 255.335C114.839 280.974 82.2965 284.604 67.3713 262.698L25.5552 201.323C21.3025 195.081 5.03391 177.174 18.7566 160.125C25.2931 154.178 44.9731 173.545 49.2257 179.787L91.0418 241.162C95.9173 248.318 106.548 247.133 112.603 238.757L172.145 156.409C176.778 150.002 179.861 142.573 181.026 135.013L183.639 118.048C185.188 107.993 180.387 99.3428 172.031 97.1323L42.4593 62.1076C35.2952 60.2124 31.8941 39.2608 34.9741 30.8505C37.6304 23.5974 55.1876 34.9067 61.5326 34.904Z"/>
</mask>
<path fill-rule="evenodd" clip-rule="evenodd" d="M61.5326 34.904C62.6551 34.8714 63.774 34.9912 64.8666 35.2776L184.531 66.649C184.714 66.697 184.895 66.7495 185.075 66.8065C197.423 70.7275 211.043 70.9123 224.683 67.3682C226.977 66.405 229.319 65.5936 231.697 64.9464L352.234 12.8458C353.381 12.5337 354.504 12.3774 355.588 12.3645C361.886 12.2468 371.302 35.0522 371.743 42.1923C372.26 50.5441 366.371 59.0481 358.59 61.1866L235.055 95.138L230.051 96.6316C229.614 96.762 229.178 96.8895 228.741 97.0142C219.587 101.508 212.46 111.182 210.799 121.966L208.853 134.598C207.688 142.158 208.492 149.529 211.168 155.827L245.556 236.775C249.054 245.008 259.367 245.882 266.474 238.547L316.915 155.827C323.115 149.43 338.123 147.338 344.564 167.229C350.598 181.436 350.764 190.169 344.564 196.567L283.604 259.474C261.846 281.928 230.274 279.253 219.567 254.05L188.013 179.773L133.378 255.335C114.839 280.974 82.2965 284.604 67.3713 262.698L25.5552 201.323C21.3025 195.081 5.03391 177.174 18.7566 160.125C25.2931 154.178 44.9731 173.545 49.2257 179.787L91.0418 241.162C95.9173 248.318 106.548 247.133 112.603 238.757L172.145 156.409C176.778 150.002 179.861 142.573 181.026 135.013L183.639 118.048C185.188 107.993 180.387 99.3428 172.031 97.1323L42.4593 62.1076C35.2952 60.2124 31.8941 39.2608 34.9741 30.8505C37.6304 23.5974 55.1876 34.9067 61.5326 34.904Z" fill="white"/>
<path d="M232.717 65.2644L232.695 64.8869L230.698 65.0059L230.721 65.3834L232.717 65.2644ZM64.8666 35.2776L64.3594 37.2123L64.3594 37.2123L64.8666 35.2776ZM61.5326 34.904L61.5335 36.904L61.562 36.9039L61.5905 36.9031L61.5326 34.904ZM184.531 66.649L184.024 68.5837L184.024 68.5837L184.531 66.649ZM185.075 66.8065L184.469 68.7127L184.469 68.7127L185.075 66.8065ZM224.683 67.3682L225.186 69.3039L225.325 69.2678L225.458 69.2122L224.683 67.3682ZM231.697 64.9464L232.222 66.8762L232.359 66.8388L232.49 66.7822L231.697 64.9464ZM352.234 12.8458L351.709 10.916L351.571 10.9534L351.441 11.01L352.234 12.8458ZM355.588 12.3645L355.612 14.3644L355.626 14.3642L355.588 12.3645ZM371.743 42.1923L373.74 42.0689L373.74 42.0689L371.743 42.1923ZM358.59 61.1866L358.06 59.2581L358.06 59.2581L358.59 61.1866ZM235.055 95.138L234.525 93.2095L234.504 93.2153L234.483 93.2215L235.055 95.138ZM230.051 96.6316L229.479 94.7152L229.479 94.7152L230.051 96.6316ZM228.741 97.0142L228.192 95.091L228.02 95.1401L227.859 95.2189L228.741 97.0142ZM210.799 121.966L212.775 122.271L212.775 122.271L210.799 121.966ZM208.853 134.598L206.876 134.293L206.876 134.293L208.853 134.598ZM211.168 155.827L209.327 156.609L209.327 156.609L211.168 155.827ZM245.556 236.775L243.715 237.557L243.715 237.557L245.556 236.775ZM266.474 238.547L267.911 239.939L268.066 239.779L268.182 239.588L266.474 238.547ZM316.915 155.827L315.479 154.436L315.323 154.596L315.207 154.786L316.915 155.827ZM344.564 167.229L342.662 167.845L342.689 167.929L342.723 168.01L344.564 167.229ZM344.564 196.567L346.001 197.959L346.001 197.959L344.564 196.567ZM283.604 259.474L282.168 258.082L282.168 258.082L283.604 259.474ZM219.567 254.05L221.408 253.268L221.408 253.268L219.567 254.05ZM188.013 179.773L189.854 178.991L188.468 175.73L186.392 178.601L188.013 179.773ZM133.378 255.335L131.757 254.163L131.757 254.163L133.378 255.335ZM67.3713 262.698L69.0241 261.572L69.0241 261.572L67.3713 262.698ZM25.5552 201.323L23.9024 202.449L23.9024 202.449L25.5552 201.323ZM18.7566 160.125L17.4107 158.645L17.2959 158.75L17.1986 158.871L18.7566 160.125ZM49.2257 179.787L47.5729 180.913L47.5729 180.913L49.2257 179.787ZM91.0418 241.162L89.389 242.289L91.0418 241.162ZM112.603 238.757L110.983 237.585L110.983 237.585L112.603 238.757ZM172.145 156.409L173.766 157.581L173.766 157.581L172.145 156.409ZM181.026 135.013L179.049 134.708L179.049 134.708L181.026 135.013ZM183.639 118.048L185.616 118.353L185.616 118.353L183.639 118.048ZM172.031 97.1323L171.509 99.063L171.519 99.0658L172.031 97.1323ZM42.4593 62.1076L42.9812 60.1768L42.9708 60.1741L42.4593 62.1076ZM34.9741 30.8505L33.0961 30.1627L33.0961 30.1627L34.9741 30.8505ZM65.3738 33.343C64.0882 33.006 62.7786 32.867 61.4747 32.9048L61.5905 36.9031C62.5317 36.8758 63.4597 36.9764 64.3594 37.2123L65.3738 33.343ZM185.038 64.7144L65.3738 33.343L64.3594 37.2123L184.024 68.5837L185.038 64.7144ZM185.68 64.9003C185.468 64.8329 185.254 64.771 185.038 64.7144L184.024 68.5837C184.174 68.623 184.323 68.666 184.469 68.7127L185.68 64.9003ZM224.18 65.4325C210.87 68.8908 197.636 68.6968 185.68 64.9002L184.469 68.7127C197.209 72.7581 211.215 72.9339 225.186 69.3039L224.18 65.4325ZM231.172 63.0166C228.706 63.6877 226.281 64.528 223.909 65.5242L225.458 69.2122C227.673 68.2819 229.931 67.4996 232.222 66.8762L231.172 63.0166ZM351.441 11.01L230.903 63.1105L232.49 66.7822L353.028 14.6816L351.441 11.01ZM355.565 10.3647C354.304 10.3796 353.012 10.5613 351.709 10.916L352.759 14.7756C353.749 14.5061 354.705 14.3752 355.612 14.3644L355.565 10.3647ZM373.74 42.0689C373.613 40.0147 372.872 37.0484 371.817 33.8724C370.746 30.6501 369.298 27.0523 367.661 23.6828C366.031 20.3283 364.176 17.1208 362.273 14.7268C361.323 13.5317 360.309 12.4731 359.249 11.7021C358.205 10.943 356.945 10.3388 355.551 10.3649L355.626 14.3642C355.806 14.3608 356.218 14.4436 356.896 14.937C357.558 15.4185 358.317 16.1781 359.142 17.216C360.789 19.288 362.496 22.206 364.063 25.4307C365.622 28.6403 367.005 32.0753 368.02 35.1335C369.052 38.2379 369.653 40.7999 369.747 42.3157L373.74 42.0689ZM359.12 63.1151C367.862 60.7125 374.311 51.3144 373.74 42.0689L369.747 42.3157C370.208 49.7737 364.879 57.3838 358.06 59.2581L359.12 63.1151ZM235.585 97.0665L359.12 63.1151L358.06 59.2581L234.525 93.2095L235.585 97.0665ZM230.623 98.5481L235.627 97.0544L234.483 93.2215L229.479 94.7152L230.623 98.5481ZM229.29 98.9374C229.734 98.8105 230.179 98.6808 230.623 98.5481L229.479 94.7152C229.05 94.8433 228.621 94.9685 228.192 95.091L229.29 98.9374ZM212.775 122.271C214.34 112.112 221.073 103.006 229.622 98.8096L227.859 95.2189C218.1 100.01 210.579 110.252 208.822 121.662L212.775 122.271ZM210.83 134.902L212.775 122.271L208.822 121.662L206.876 134.293L210.83 134.902ZM213.008 155.045C210.495 149.129 209.715 142.139 210.83 134.902L206.876 134.293C205.662 142.177 206.489 149.929 209.327 156.609L213.008 155.045ZM247.397 235.993L213.008 155.045L209.327 156.609L243.715 237.557L247.397 235.993ZM265.038 237.155C261.844 240.451 258.058 241.779 254.83 241.506C251.65 241.237 248.85 239.413 247.397 235.993L243.715 237.557C245.76 242.37 249.865 245.1 254.493 245.492C259.073 245.88 263.997 243.977 267.911 239.939L265.038 237.155ZM315.207 154.786L264.767 237.506L268.182 239.588L318.622 156.869L315.207 154.786ZM346.467 166.613C343.095 156.2 337.294 151.073 331.075 149.716C324.992 148.388 319.005 150.797 315.479 154.436L318.351 157.219C321.025 154.46 325.641 152.624 330.223 153.624C334.668 154.594 339.592 158.366 342.662 167.845L346.467 166.613ZM346.001 197.959C349.481 194.367 351.175 190.075 351.152 184.818C351.129 179.666 349.461 173.641 346.405 166.447L342.723 168.01C345.702 175.024 347.133 180.47 347.152 184.835C347.17 189.096 345.847 192.369 343.128 195.175L346.001 197.959ZM285.04 260.866L346.001 197.959L343.128 195.175L282.168 258.082L285.04 260.866ZM217.727 254.832C223.376 268.13 234.598 275.553 247.273 276.626C259.9 277.696 273.802 272.464 285.04 260.866L282.168 258.082C271.648 268.938 258.885 273.595 247.61 272.64C236.383 271.689 226.466 265.173 221.408 253.268L217.727 254.832ZM186.172 180.555L217.727 254.832L221.408 253.268L189.854 178.991L186.172 180.555ZM134.998 256.507L189.634 180.945L186.392 178.601L131.757 254.163L134.998 256.507ZM65.7184 263.824C73.6404 275.451 86.2641 280.281 99.2413 278.834C112.18 277.39 125.436 269.733 134.998 256.507L131.757 254.163C122.781 266.577 110.496 273.553 98.7978 274.858C87.1377 276.159 76.0274 271.851 69.0241 261.572L65.7184 263.824ZM23.9024 202.449L65.7184 263.824L69.0241 261.572L27.208 200.197L23.9024 202.449ZM17.1986 158.871C9.75774 168.115 10.4937 177.668 13.552 185.504C16.5454 193.174 21.9359 199.563 23.9024 202.449L27.208 200.197C24.9218 196.841 20.0517 191.156 17.2783 184.049C14.5698 177.109 14.0328 169.184 20.3146 161.379L17.1986 158.871ZM50.8786 178.661C48.6055 175.325 42.4613 168.777 36.076 163.807C32.8817 161.321 29.4924 159.122 26.3881 157.941C23.3945 156.802 19.9296 156.354 17.4107 158.645L20.1025 161.604C20.8518 160.922 22.2981 160.665 24.9658 161.68C27.5228 162.653 30.5449 164.571 33.6192 166.964C39.7712 171.752 45.5933 178.008 47.5729 180.913L50.8786 178.661ZM92.6947 240.036L50.8786 178.661L47.5729 180.913L89.389 242.289L92.6947 240.036ZM110.983 237.585C108.249 241.367 104.562 243.417 101.158 243.796C97.7928 244.172 94.6731 242.94 92.6947 240.036L89.389 242.289C92.286 246.541 96.9192 248.294 101.602 247.772C106.246 247.254 110.903 244.523 114.224 239.929L110.983 237.585ZM170.525 155.237L110.983 237.585L114.224 239.929L173.766 157.581L170.525 155.237ZM179.049 134.708C177.935 141.945 174.978 149.078 170.525 155.237L173.766 157.581C178.578 150.926 181.788 143.201 183.003 135.317L179.049 134.708ZM181.662 117.744L179.049 134.708L183.003 135.317L185.616 118.353L181.662 117.744ZM171.519 99.0658C178.644 100.951 183.097 108.431 181.662 117.744L185.616 118.353C187.279 107.556 182.13 97.7351 172.542 95.1988L171.519 99.0658ZM41.9374 64.0383L171.509 99.063L172.553 95.2016L42.9812 60.1769L41.9374 64.0383ZM33.0961 30.1627C32.212 32.5769 31.8393 35.7271 31.8369 39.0146C31.8344 42.3335 32.2098 45.9374 32.9173 49.3305C33.622 52.71 34.6749 55.9706 36.0753 58.5587C37.432 61.066 39.339 63.3509 41.9478 64.0411L42.9708 60.1741C41.9976 59.9166 40.7929 58.872 39.5933 56.655C38.4373 54.5188 37.4892 51.6606 36.8331 48.514C36.1798 45.381 35.8346 42.0516 35.8369 39.0175C35.8391 35.9519 36.1963 33.3292 36.8522 31.5383L33.0961 30.1627ZM61.5317 32.904C60.3599 32.9045 58.4059 32.3419 55.7685 31.3742C53.3375 30.4823 50.2623 29.2219 47.5278 28.2696C44.7571 27.3048 41.8535 26.4715 39.3902 26.4247C38.1413 26.401 36.8475 26.5738 35.7013 27.1647C34.4979 27.785 33.5964 28.7966 33.0961 30.1627L36.8522 31.5383C37.0159 31.0911 37.2441 30.8695 37.5341 30.7201C37.8813 30.5411 38.4445 30.4075 39.3142 30.424C41.0883 30.4577 43.4686 31.0916 46.2123 32.0471C48.9923 33.0152 51.6621 34.1283 54.3907 35.1294C56.9127 36.0548 59.5328 36.9048 61.5335 36.904L61.5317 32.904Z" fill="#EFF1FB" mask="url(#path-1-inside-1_369_4)"/>
<path d="M51.3851 15.9873L51.3995 15.9873L51.414 15.9869C52.4438 15.957 53.472 16.0668 54.4788 16.3307L174.143 47.7021C174.312 47.7462 174.479 47.7945 174.644 47.847C187.163 51.8222 200.974 52.0099 214.805 48.4163L214.886 48.3953L214.964 48.3623C217.21 47.419 219.503 46.6247 221.831 45.9911L346.804 11.9787C347.861 11.6911 348.894 11.5477 349.888 11.5359L349.895 11.5358C355.648 11.4283 360.335 15.7518 360.753 22.5078C361.244 30.4453 355.645 38.3662 348.491 40.3323L224.957 74.2837L224.945 74.287L224.932 74.2906L219.928 75.7843C219.496 75.9133 219.064 76.0396 218.631 76.163L218.53 76.1919L218.433 76.2394C208.882 80.928 201.529 90.9668 199.818 102.076L197.872 114.707C196.682 122.433 197.502 129.972 200.243 136.424L234.631 217.371C238.37 226.172 249.51 227.162 257.171 219.256L318.132 156.348C323.887 150.409 332.038 149.959 336.414 155.305C340.849 160.723 339.733 170.034 333.906 176.048L272.946 238.955C251.741 260.837 220.997 258.279 210.531 233.643L178.977 159.366L178.34 157.868L177.238 159.392L122.603 234.954C104.482 260.016 72.8065 263.505 58.2611 242.156L16.4451 180.78C12.448 174.914 14.2018 165.593 20.3299 160.018C26.3766 154.516 34.4264 154.724 38.3746 160.519L80.1907 221.894C85.4459 229.608 96.9433 228.281 103.417 219.328L162.959 136.979C167.704 130.417 170.855 122.818 172.045 115.092L174.658 98.1282C176.264 87.7047 171.301 78.6084 162.459 76.2694L43.8127 44.8829C37.2264 43.1406 34.0286 35.3634 36.9559 27.3702C39.4695 20.5065 45.5899 15.9898 51.3851 15.9873Z" fill="white" stroke="#EFF1FB" stroke-width="2"/>
<mask id="path-4-inside-2_369_4" fill="white">
<path d="M398.605 149.882C398.605 152.957 399.162 155.153 402.558 155.153H566.833C570.23 155.153 574.373 152.777 576.087 149.845L587.22 130.809C587.771 129.867 588.059 128.8 588.075 127.709C588.157 122.039 588.596 112.675 588.746 109.604C588.772 109.069 588.319 108.638 587.786 108.687L420.741 124.062C417.734 124.062 404.043 130.298 399.754 133.762C398.906 134.448 398.605 135.523 398.605 136.614L398.605 149.882Z"/>
</mask>
<path d="M398.605 149.882C398.605 152.957 399.162 155.153 402.558 155.153H566.833C570.23 155.153 574.373 152.777 576.087 149.845L587.22 130.809C587.771 129.867 588.059 128.8 588.075 127.709C588.157 122.039 588.596 112.675 588.746 109.604C588.772 109.069 588.319 108.638 587.786 108.687L420.741 124.062C417.734 124.062 404.043 130.298 399.754 133.762C398.906 134.448 398.605 135.523 398.605 136.614L398.605 149.882Z" fill="white"/>
<path d="M420.741 124.062L420.924 126.054L420.833 126.062H420.741L420.741 124.062ZM576.087 149.845L574.361 148.835L574.361 148.835L576.087 149.845ZM398.605 149.882L396.605 149.882V149.882L398.605 149.882ZM587.786 108.687L587.603 106.695L587.786 108.687ZM588.746 109.604L586.748 109.506L588.746 109.604ZM587.22 130.809L588.946 131.818L587.22 130.809ZM588.075 127.709L586.075 127.68L588.075 127.709ZM399.754 133.762L401.011 135.318L399.754 133.762ZM402.558 153.153H566.833L566.833 157.153H402.558L402.558 153.153ZM574.361 148.835L585.494 129.799L588.946 131.818L577.814 150.855L574.361 148.835ZM587.97 110.678L420.924 126.054L420.558 122.071L587.603 106.695L587.97 110.678ZM400.605 136.614L400.605 149.882L396.605 149.882L396.605 136.614L400.605 136.614ZM420.741 126.062C420.635 126.062 420.299 126.102 419.663 126.271C419.068 126.428 418.328 126.665 417.474 126.972C415.768 127.587 413.695 128.451 411.563 129.43C407.237 131.419 402.944 133.757 401.011 135.318L398.498 132.206C400.853 130.303 405.551 127.791 409.893 125.796C412.096 124.783 414.278 123.872 416.119 123.209C417.038 122.878 417.895 122.601 418.641 122.403C419.346 122.217 420.095 122.062 420.741 122.062L420.741 126.062ZM586.075 127.68C586.158 121.97 586.599 112.571 586.748 109.506L590.743 109.701C590.594 112.779 590.156 122.109 590.074 127.738L586.075 127.68ZM566.833 153.153C568.1 153.153 569.643 152.697 571.096 151.864C572.548 151.03 573.721 149.928 574.361 148.835L577.814 150.855C576.738 152.693 574.983 154.245 573.086 155.333C571.189 156.421 568.963 157.153 566.833 157.153L566.833 153.153ZM402.558 157.153C400.376 157.153 398.622 156.402 397.596 154.705C396.72 153.253 396.605 151.427 396.605 149.882L400.605 149.882C400.605 151.412 400.77 152.222 401.02 152.637C401.123 152.806 401.344 153.153 402.558 153.153L402.558 157.153ZM587.603 106.695C589.34 106.535 590.829 107.946 590.743 109.701L586.748 109.506C586.715 110.193 587.298 110.74 587.97 110.678L587.603 106.695ZM585.494 129.799C585.864 129.165 586.064 128.438 586.075 127.68L590.074 127.738C590.054 129.162 589.677 130.569 588.946 131.818L585.494 129.799ZM396.605 136.614C396.605 135.217 396.988 133.426 398.498 132.206L401.011 135.318C400.824 135.469 400.605 135.829 400.605 136.614L396.605 136.614Z" fill="#EFF1FB" mask="url(#path-4-inside-2_369_4)"/>
<rect x="1.50483" y="-0.863219" width="174.574" height="34.0175" rx="5.14933" transform="matrix(1 0 0.504829 -0.863219 396.842 135.975)" fill="white" stroke="#EFF1FB" stroke-width="2"/>
<mask id="path-7-inside-3_369_4" fill="white">
<path d="M434.18 88.3902C434.18 91.4649 434.736 93.6611 438.133 93.6611H602.408C605.804 93.6611 609.947 91.2845 611.661 88.3528L622.794 69.3165C623.345 68.3747 623.633 67.3078 623.649 66.2168C623.731 60.5472 624.17 51.1824 624.32 48.1114C624.346 47.5773 623.893 47.1457 623.361 47.1947L456.315 62.57C453.308 62.57 439.617 68.8059 435.329 72.2699C434.48 72.9555 434.18 74.0312 434.18 75.1222L434.18 88.3902Z"/>
</mask>
<path d="M434.18 88.3902C434.18 91.4649 434.736 93.6611 438.133 93.6611H602.408C605.804 93.6611 609.947 91.2845 611.661 88.3528L622.794 69.3165C623.345 68.3747 623.633 67.3078 623.649 66.2168C623.731 60.5472 624.17 51.1824 624.32 48.1114C624.346 47.5773 623.893 47.1457 623.361 47.1947L456.315 62.57C453.308 62.57 439.617 68.8059 435.329 72.2699C434.48 72.9555 434.18 74.0312 434.18 75.1222L434.18 88.3902Z" fill="white"/>
<path d="M456.315 62.57L456.499 64.5616L456.407 64.57H456.315V62.57ZM611.661 88.3528L613.388 89.3625L613.388 89.3625L611.661 88.3528ZM434.18 88.3902L432.18 88.3902V88.3902L434.18 88.3902ZM623.361 47.1947L623.177 45.2031L623.361 47.1947ZM624.32 48.1114L622.322 48.0142L624.32 48.1114ZM622.794 69.3165L621.068 68.3068L621.068 68.3068L622.794 69.3165ZM623.649 66.2168L621.649 66.1877L623.649 66.2168ZM434.18 75.1222L432.18 75.1222L434.18 75.1222ZM435.329 72.2699L434.072 70.7141L434.072 70.7141L435.329 72.2699ZM438.133 91.6611H602.408V95.6611H438.133V91.6611ZM609.935 87.3432L621.068 68.3068L624.521 70.3262L613.388 89.3625L609.935 87.3432ZM623.544 49.1863L456.499 64.5616L456.132 60.5785L623.177 45.2031L623.544 49.1863ZM436.18 75.1222L436.18 88.3902L432.18 88.3902L432.18 75.1222L436.18 75.1222ZM456.315 64.57C456.209 64.57 455.873 64.6102 455.237 64.7783C454.642 64.9357 453.903 65.1725 453.048 65.4802C451.342 66.0946 449.269 66.9587 447.138 67.9383C442.811 69.9266 438.518 72.2645 436.585 73.8258L434.072 70.7141C436.428 68.8113 441.125 66.2992 445.467 64.3037C447.67 63.2913 449.852 62.3799 451.693 61.7169C452.612 61.3858 453.469 61.1084 454.215 60.9112C454.92 60.7248 455.669 60.57 456.315 60.57V64.57ZM621.649 66.1877C621.732 60.478 622.173 51.0784 622.322 48.0142L626.318 48.2086C626.168 51.2864 625.731 60.6165 625.649 66.2459L621.649 66.1877ZM602.408 91.6611C603.674 91.6611 605.217 91.2047 606.67 90.3715C608.122 89.5383 609.296 88.4363 609.935 87.3432L613.388 89.3625C612.313 91.2011 610.557 92.7532 608.66 93.8412C606.764 94.9292 604.538 95.6611 602.408 95.6611V91.6611ZM438.133 95.6611C435.95 95.6611 434.196 94.9101 433.171 93.2126C432.294 91.7611 432.18 89.9349 432.18 88.3902L436.18 88.3902C436.18 89.9202 436.344 90.7294 436.595 91.1447C436.697 91.3139 436.919 91.6611 438.133 91.6611V95.6611ZM623.177 45.2031C624.914 45.0432 626.403 46.4538 626.318 48.2086L622.322 48.0142C622.289 48.7007 622.872 49.2482 623.544 49.1863L623.177 45.2031ZM621.068 68.3068C621.439 67.6728 621.638 66.9455 621.649 66.1877L625.649 66.2459C625.628 67.67 625.251 69.0765 624.521 70.3262L621.068 68.3068ZM432.18 75.1222C432.18 73.7253 432.562 71.9339 434.072 70.7141L436.585 73.8258C436.398 73.9772 436.18 74.337 436.18 75.1222L432.18 75.1222Z" fill="#EFF1FB" mask="url(#path-7-inside-3_369_4)"/>
<path d="M438.129 75.091H602.404C603.887 75.091 605.601 74.5657 607.164 73.6688C608.728 72.7719 610.047 71.5574 610.795 70.278L622.769 49.8034C623.521 48.5174 623.468 47.5909 623.159 47.0523C622.85 46.5137 622.077 46 620.587 46H456.312C454.83 46 453.116 46.5252 451.552 47.4221C449.989 48.319 448.67 49.5336 447.922 50.813L435.948 71.2876C435.196 72.5736 435.249 73.5 435.558 74.0387C435.867 74.5773 436.64 75.091 438.129 75.091Z" fill="white" stroke="#EFF1FB" stroke-width="2"/>
<path d="M493.502 508.043C493.57 507.838 493.626 507.67 493.668 507.543C490.806 498.754 484.168 486.614 475.377 470.537C474.502 468.937 473.606 467.298 472.69 465.62C462.497 446.939 449.946 423.497 437.431 394.711C407.404 325.64 381.413 266.231 379.651 262.644C378.56 260.424 375.428 256.274 371.148 252.986C366.887 249.712 361.655 247.414 356.254 248.536L356.254 248.536C351.905 249.44 349.41 252.76 347.671 256.676C346.805 258.625 346.147 260.673 345.536 262.58L345.517 262.639C344.922 264.494 344.357 266.258 343.682 267.558C342.417 269.996 342.156 273.598 343.256 279.303C344.354 284.999 346.783 292.659 350.742 303.099C358.13 322.58 370.773 351.548 389.793 395.13C391.154 398.248 392.548 401.441 393.975 404.711L450.522 534.317L466.388 533.193C466.635 533.176 466.881 533.158 467.124 533.141C471.517 532.831 475.203 532.57 478.187 531.972C481.328 531.343 483.548 530.364 484.944 528.685C485.634 527.855 486.54 526.135 487.527 523.922C488.501 521.738 489.518 519.161 490.443 516.689C491.368 514.219 492.197 511.863 492.795 510.124C493.094 509.255 493.335 508.54 493.502 508.043Z" fill="white" stroke="#EFF1FB" stroke-width="2"/>
<mask id="path-11-inside-4_369_4" fill="white">
<path fill-rule="evenodd" clip-rule="evenodd" d="M387.133 247.044C388.911 250.663 414.92 310.116 444.936 379.16C505.922 517.904 504.963 516.623 473.204 518.876L456.522 520.058L399.63 389.662C337.172 246.511 337.93 250.009 367.993 243.765C379.604 241.352 384.772 242.239 387.133 247.044Z"/>
</mask>
<path fill-rule="evenodd" clip-rule="evenodd" d="M387.133 247.044C388.911 250.663 414.92 310.116 444.936 379.16C505.922 517.904 504.963 516.623 473.204 518.876L456.522 520.058L399.63 389.662C337.172 246.511 337.93 250.009 367.993 243.765C379.604 241.352 384.772 242.239 387.133 247.044Z" fill="white"/>
<path d="M387.133 247.044L388.938 246.447L388.938 246.447L387.133 247.044ZM444.936 379.16L443.09 379.668L443.086 379.66L444.936 379.16ZM473.204 518.876L473.679 520.843L473.678 520.843L473.204 518.876ZM456.522 520.058L456.996 522.025L455.363 522.141L454.673 520.561L456.522 520.058ZM399.63 389.662L401.479 389.159L401.479 389.159L399.63 389.662ZM367.993 243.765L368.719 245.697L368.719 245.697L367.993 243.765ZM388.938 246.447C390.747 250.13 416.794 309.668 446.786 378.66L443.086 379.66C413.047 310.563 387.074 251.196 385.328 247.642L388.938 246.447ZM446.783 378.651C462.025 413.328 473.413 439.291 481.415 458.748C489.4 478.162 494.087 491.264 495.84 500.147C497.594 509.041 496.527 514.376 492.076 517.298C489.977 518.675 487.28 519.4 484.238 519.866C481.196 520.333 477.612 520.564 473.679 520.843L472.73 516.909C476.737 516.625 480.13 516.404 482.98 515.967C485.832 515.53 487.943 514.902 489.448 513.914C492.203 512.107 493.519 508.668 491.86 500.257C490.198 491.836 485.675 479.103 477.68 459.665C469.702 440.27 458.34 414.364 443.09 379.668L446.783 378.651ZM473.678 520.843L456.996 522.025L456.048 518.091L472.73 516.909L473.678 520.843ZM454.673 520.561L397.781 390.165L401.479 389.159L458.371 519.555L454.673 520.561ZM397.781 390.165C382.172 354.389 370.497 327.741 362.244 307.816C354.008 287.93 349.11 274.58 347.134 265.466C345.156 256.342 345.978 250.864 350.009 247.483C351.929 245.873 354.448 244.859 357.312 244.052C360.167 243.249 363.563 242.602 367.268 241.832L368.719 245.697C364.908 246.489 361.704 247.098 359.007 247.858C356.319 248.614 354.335 249.47 352.933 250.646C350.317 252.84 349.217 256.605 351.098 265.28C352.982 273.967 357.727 286.973 365.975 306.888C374.207 326.764 385.859 353.359 401.479 389.159L397.781 390.165ZM367.268 241.832C373.093 240.622 377.601 240.164 381.056 240.757C382.828 241.06 384.427 241.656 385.805 242.651C387.195 243.656 388.206 244.957 388.938 246.447L385.328 247.642C384.879 246.729 384.359 246.117 383.753 245.679C383.134 245.232 382.273 244.856 381.007 244.639C378.386 244.19 374.504 244.495 368.719 245.697L367.268 241.832Z" fill="#EFF1FB" mask="url(#path-11-inside-4_369_4)"/>
<path d="M457.434 311.575L450.716 325.011" stroke="#EFF1FB" stroke-width="2"/>
<mask id="path-14-inside-5_369_4" fill="white">
<path d="M125.324 514.316C133.699 519.152 142.903 522.779 152.934 525.196C162.965 527.502 173.24 528.542 183.758 528.317C194.276 528.092 204.891 526.518 215.604 523.594C226.317 520.67 236.543 516.397 246.282 510.774C252.32 507.288 257.433 503.661 261.621 499.894C266.004 496.126 269.656 492.219 272.577 488.17C274.233 485.64 275.645 483.025 276.814 480.326C278.08 477.571 279.103 474.788 279.882 471.976L304.278 473.748L344.743 450.385V428.087L288.638 429.451C287.079 420.117 276.619 427.584 268.925 419.094C261.329 410.547 245.452 383.382 232.499 375.904L207.57 390.586V412.684C215.556 417.295 222.13 422.158 227.291 427.275C232.453 432.279 236.348 437.396 238.978 442.625L147.529 435.878L149.72 422.636C150.889 418.363 151.619 414.23 151.911 410.238C152.204 406.133 153.08 386.637 151.911 382.813C150.937 379.102 147.724 391.12 144.899 387.803C142.075 384.373 138.131 381.196 133.066 378.272C126.736 374.617 119.578 371.778 111.592 369.754C103.606 367.729 95.3765 366.633 86.9036 366.464C78.3333 366.352 69.8603 367.252 61.4848 369.163C53.1093 371.075 45.3668 374.083 38.2573 378.188C29.8818 383.024 19.2386 374.017 14.8561 379.358C10.5709 384.644 12.595 404.081 12.4003 409.479C12.1081 414.933 14.0072 420.359 18.0976 425.757C22.1879 431.042 28.3722 436.075 36.6504 440.854C41.2277 443.497 46.1946 445.802 51.551 447.77C56.9075 449.626 62.7022 451.228 68.9351 452.578C74.0968 453.759 79.6967 454.799 85.7349 455.698C91.8705 456.542 98.3469 457.301 105.164 457.976L101.658 457.618C101.658 463.134 101.95 471.47 101.658 476.025C101.463 480.523 101.902 484.825 102.973 488.929C104.336 493.652 106.771 498.151 110.277 502.424C113.881 506.641 118.896 510.605 125.324 514.316ZM219.11 493.905C214.436 496.604 209.469 498.572 204.21 499.809C199.048 500.99 193.838 501.524 188.579 501.412C183.32 501.299 178.158 500.568 173.094 499.219C168.029 497.757 163.355 495.789 159.07 493.315C157.122 492.19 155.125 490.813 153.08 489.182C151.035 487.439 149.184 485.359 147.529 482.941C145.873 480.523 144.607 477.655 143.731 474.338C142.757 470.964 142.611 467.394 143.292 463.627L143.731 461.181L241.169 468.856C240.585 470.88 239.806 472.848 238.832 474.76C237.761 476.615 236.592 478.471 235.326 480.326C233.281 482.857 230.943 485.274 228.314 487.58C225.587 489.829 222.519 491.937 219.11 493.905ZM69.2273 421.877C65.8187 419.909 63.0917 417.829 61.0465 415.636C59.0014 413.33 57.784 410.941 57.3944 408.467C56.9075 406.161 57.3944 403.8 58.8553 401.382C60.3161 398.964 62.897 396.687 66.5978 394.55C69.2273 393.032 72.1977 391.992 75.509 391.43C78.8202 390.867 82.1802 390.727 85.5888 391.008C88.9001 391.233 92.2113 391.851 95.5226 392.863C98.7365 393.819 101.658 395.056 104.288 396.575C105.651 397.362 107.209 398.374 108.962 399.611C110.618 400.792 112.03 402.169 113.199 403.744C114.562 405.43 115.439 407.398 115.828 409.648C116.218 411.897 115.926 414.483 114.952 417.407L111.446 432.757C106.966 432.195 102.729 431.605 98.7365 430.986C94.8409 430.311 91.1887 429.552 87.7801 428.709C84.0793 427.809 80.7193 426.825 77.7002 425.757C74.5837 424.632 71.7594 423.339 69.2273 421.877Z"/>
</mask>
<path d="M125.324 514.316C133.699 519.152 142.903 522.779 152.934 525.196C162.965 527.502 173.24 528.542 183.758 528.317C194.276 528.092 204.891 526.518 215.604 523.594C226.317 520.67 236.543 516.397 246.282 510.774C252.32 507.288 257.433 503.661 261.621 499.894C266.004 496.126 269.656 492.219 272.577 488.17C274.233 485.64 275.645 483.025 276.814 480.326C278.08 477.571 279.103 474.788 279.882 471.976L304.278 473.748L344.743 450.385V428.087L288.638 429.451C287.079 420.117 276.619 427.584 268.925 419.094C261.329 410.547 245.452 383.382 232.499 375.904L207.57 390.586V412.684C215.556 417.295 222.13 422.158 227.291 427.275C232.453 432.279 236.348 437.396 238.978 442.625L147.529 435.878L149.72 422.636C150.889 418.363 151.619 414.23 151.911 410.238C152.204 406.133 153.08 386.637 151.911 382.813C150.937 379.102 147.724 391.12 144.899 387.803C142.075 384.373 138.131 381.196 133.066 378.272C126.736 374.617 119.578 371.778 111.592 369.754C103.606 367.729 95.3765 366.633 86.9036 366.464C78.3333 366.352 69.8603 367.252 61.4848 369.163C53.1093 371.075 45.3668 374.083 38.2573 378.188C29.8818 383.024 19.2386 374.017 14.8561 379.358C10.5709 384.644 12.595 404.081 12.4003 409.479C12.1081 414.933 14.0072 420.359 18.0976 425.757C22.1879 431.042 28.3722 436.075 36.6504 440.854C41.2277 443.497 46.1946 445.802 51.551 447.77C56.9075 449.626 62.7022 451.228 68.9351 452.578C74.0968 453.759 79.6967 454.799 85.7349 455.698C91.8705 456.542 98.3469 457.301 105.164 457.976L101.658 457.618C101.658 463.134 101.95 471.47 101.658 476.025C101.463 480.523 101.902 484.825 102.973 488.929C104.336 493.652 106.771 498.151 110.277 502.424C113.881 506.641 118.896 510.605 125.324 514.316ZM219.11 493.905C214.436 496.604 209.469 498.572 204.21 499.809C199.048 500.99 193.838 501.524 188.579 501.412C183.32 501.299 178.158 500.568 173.094 499.219C168.029 497.757 163.355 495.789 159.07 493.315C157.122 492.19 155.125 490.813 153.08 489.182C151.035 487.439 149.184 485.359 147.529 482.941C145.873 480.523 144.607 477.655 143.731 474.338C142.757 470.964 142.611 467.394 143.292 463.627L143.731 461.181L241.169 468.856C240.585 470.88 239.806 472.848 238.832 474.76C237.761 476.615 236.592 478.471 235.326 480.326C233.281 482.857 230.943 485.274 228.314 487.58C225.587 489.829 222.519 491.937 219.11 493.905ZM69.2273 421.877C65.8187 419.909 63.0917 417.829 61.0465 415.636C59.0014 413.33 57.784 410.941 57.3944 408.467C56.9075 406.161 57.3944 403.8 58.8553 401.382C60.3161 398.964 62.897 396.687 66.5978 394.55C69.2273 393.032 72.1977 391.992 75.509 391.43C78.8202 390.867 82.1802 390.727 85.5888 391.008C88.9001 391.233 92.2113 391.851 95.5226 392.863C98.7365 393.819 101.658 395.056 104.288 396.575C105.651 397.362 107.209 398.374 108.962 399.611C110.618 400.792 112.03 402.169 113.199 403.744C114.562 405.43 115.439 407.398 115.828 409.648C116.218 411.897 115.926 414.483 114.952 417.407L111.446 432.757C106.966 432.195 102.729 431.605 98.7365 430.986C94.8409 430.311 91.1887 429.552 87.7801 428.709C84.0793 427.809 80.7193 426.825 77.7002 425.757C74.5837 424.632 71.7594 423.339 69.2273 421.877Z" fill="white"/>
<path d="M125.324 514.316L126.324 512.584L125.324 514.316ZM152.934 525.196L152.465 527.141L152.476 527.143L152.486 527.146L152.934 525.196ZM246.282 510.774L247.282 512.506L247.282 512.506L246.282 510.774ZM261.621 499.894L260.317 498.377L260.3 498.392L260.284 498.407L261.621 499.894ZM272.577 488.17L274.199 489.341L274.226 489.303L274.251 489.265L272.577 488.17ZM276.814 480.326L274.997 479.491L274.987 479.511L274.979 479.532L276.814 480.326ZM279.882 471.976L280.027 469.982L278.392 469.863L277.954 471.442L279.882 471.976ZM304.278 473.748L304.133 475.742L304.746 475.787L305.278 475.48L304.278 473.748ZM344.743 450.385L345.743 452.117L346.743 451.54V450.385H344.743ZM288.638 429.451L286.665 429.78L286.951 431.493L288.686 431.45L288.638 429.451ZM268.925 419.094L267.431 420.423L267.437 420.43L267.443 420.437L268.925 419.094ZM232.499 375.904L233.499 374.172L232.489 373.589L231.485 374.181L232.499 375.904ZM207.57 412.684H205.57V413.839L206.57 414.416L207.57 412.684ZM227.291 427.275L225.883 428.695L225.891 428.703L225.899 428.711L227.291 427.275ZM238.978 442.625L238.831 444.62L242.35 444.88L240.765 441.727L238.978 442.625ZM147.529 435.878L145.556 435.551L145.198 437.711L147.382 437.873L147.529 435.878ZM149.72 422.636L147.791 422.109L147.764 422.208L147.747 422.31L149.72 422.636ZM151.911 410.238L153.906 410.384L153.906 410.38L151.911 410.238ZM151.911 382.813L149.977 383.321L149.987 383.36L149.999 383.398L151.911 382.813ZM144.899 387.803L143.355 389.074L143.366 389.087L143.376 389.099L144.899 387.803ZM133.066 378.272L134.066 376.54L134.066 376.54L133.066 378.272ZM86.9036 366.464L86.9434 364.465L86.9298 364.465L86.9036 366.464ZM38.2573 378.188L37.2573 376.456L37.2573 376.456L38.2573 378.188ZM14.8561 379.358L13.3099 378.09L13.3025 378.099L14.8561 379.358ZM12.4003 409.479L14.3974 409.586L14.3983 409.568L14.399 409.551L12.4003 409.479ZM18.0976 425.757L16.5035 426.965L16.5097 426.973L16.5159 426.981L18.0976 425.757ZM36.6504 440.854L37.6504 439.122L36.6504 440.854ZM51.551 447.77L50.8613 449.648L50.8788 449.654L50.8964 449.66L51.551 447.77ZM68.9351 452.578L69.3811 450.628L69.3697 450.625L69.3583 450.623L68.9351 452.578ZM85.7349 455.698L85.4402 457.677L85.4513 457.678L85.4625 457.68L85.7349 455.698ZM105.164 457.976L104.967 459.966L105.367 455.986L105.164 457.976ZM101.658 457.618L101.861 455.628L99.6582 455.404V457.618H101.658ZM101.658 476.025L99.6623 475.897L99.6609 475.918L99.66 475.938L101.658 476.025ZM102.973 488.929L101.038 489.434L101.044 489.459L101.051 489.484L102.973 488.929ZM110.277 502.424L108.731 503.693L108.744 503.708L108.757 503.723L110.277 502.424ZM219.11 493.905L218.11 492.173L219.11 493.905ZM204.21 499.809L204.656 501.759L204.668 501.756L204.21 499.809ZM173.094 499.219L172.539 501.14L172.559 501.146L172.579 501.152L173.094 499.219ZM159.07 493.315L158.07 495.047L159.07 493.315ZM153.08 489.182L151.783 490.704L151.808 490.726L151.833 490.746L153.08 489.182ZM143.731 474.338L145.664 473.827L145.658 473.805L145.652 473.783L143.731 474.338ZM143.292 463.627L145.26 463.983L145.261 463.979L143.292 463.627ZM143.731 461.181L143.888 459.187L142.081 459.045L141.762 460.828L143.731 461.181ZM241.169 468.856L243.091 469.41L243.771 467.054L241.326 466.862L241.169 468.856ZM238.832 474.76L240.564 475.76L240.59 475.714L240.614 475.668L238.832 474.76ZM235.326 480.326L236.881 481.584L236.932 481.521L236.978 481.454L235.326 480.326ZM228.314 487.58L229.586 489.123L229.61 489.103L229.632 489.084L228.314 487.58ZM69.2273 421.877L70.2273 420.145L70.2273 420.145L69.2273 421.877ZM61.0465 415.636L59.5504 416.963L59.567 416.982L59.5839 417L61.0465 415.636ZM57.3944 408.467L59.3701 408.156L59.362 408.104L59.3512 408.053L57.3944 408.467ZM66.5978 394.55L65.5978 392.818L66.5978 394.55ZM85.5888 391.008L85.4244 393.001L85.4388 393.002L85.4533 393.003L85.5888 391.008ZM95.5226 392.863L94.938 394.776L94.9452 394.778L94.9524 394.78L95.5226 392.863ZM104.288 396.575L105.288 394.842L104.288 396.575ZM108.962 399.611L110.124 397.983L110.116 397.977L108.962 399.611ZM113.199 403.744L111.593 404.936L111.618 404.969L111.643 405.001L113.199 403.744ZM114.952 417.407L113.054 416.775L113.024 416.867L113.002 416.962L114.952 417.407ZM111.446 432.757L111.197 434.742L112.993 434.967L113.396 433.203L111.446 432.757ZM98.7365 430.986L98.3951 432.957L98.4127 432.96L98.4303 432.963L98.7365 430.986ZM87.7801 428.709L88.2605 426.767L88.2525 426.765L87.7801 428.709ZM77.7002 425.757L77.0214 427.638L77.033 427.642L77.7002 425.757ZM207.57 390.586L206.555 388.863L205.57 389.443V390.586H207.57ZM344.743 428.087H346.743V426.038L344.695 426.087L344.743 428.087ZM124.324 516.048C132.876 520.986 142.26 524.681 152.465 527.141L153.403 523.252C143.545 520.876 134.523 517.318 126.324 512.584L124.324 516.048ZM152.486 527.146C162.682 529.489 173.121 530.545 183.801 530.317L183.715 526.317C173.358 526.539 163.249 525.515 153.382 523.247L152.486 527.146ZM183.801 530.317C194.491 530.088 205.269 528.488 216.131 525.523L215.078 521.664C204.514 524.548 194.061 526.096 183.715 526.317L183.801 530.317ZM216.131 525.523C227.012 522.554 237.396 518.213 247.282 512.506L245.282 509.042C235.69 514.58 225.623 518.786 215.078 521.664L216.131 525.523ZM247.282 512.506C253.414 508.966 258.646 505.26 262.959 501.381L260.284 498.407C256.22 502.062 251.227 505.61 245.282 509.042L247.282 512.506ZM262.925 501.41C267.408 497.556 271.172 493.535 274.199 489.341L270.956 487C268.139 490.902 264.599 494.697 260.317 498.377L262.925 501.41ZM274.251 489.265C275.967 486.642 277.434 483.927 278.649 481.121L274.979 479.532C273.856 482.123 272.499 484.637 270.904 487.075L274.251 489.265ZM278.631 481.161C279.94 478.313 281 475.429 281.809 472.511L277.954 471.442C277.205 474.147 276.22 476.829 274.997 479.491L278.631 481.161ZM279.737 473.971L304.133 475.742L304.423 471.753L280.027 469.982L279.737 473.971ZM305.278 475.48L345.743 452.117L343.743 448.653L303.278 472.016L305.278 475.48ZM290.61 429.122C290.143 426.324 288.918 424.45 286.965 423.347C285.215 422.359 283.086 422.139 281.273 421.965C277.42 421.596 273.669 421.35 270.407 417.751L267.443 420.437C271.876 425.328 277.202 425.594 280.892 425.947C282.851 426.135 284.109 426.328 284.999 426.831C285.686 427.219 286.353 427.911 286.665 429.78L290.61 429.122ZM270.42 417.765C268.605 415.723 266.25 412.513 263.478 408.63C260.733 404.784 257.61 400.323 254.326 395.905C251.04 391.485 247.557 387.058 244.06 383.252C240.582 379.467 236.999 376.192 233.499 374.172L231.499 377.636C234.476 379.355 237.735 382.28 241.114 385.958C244.475 389.616 247.864 393.917 251.116 398.291C254.37 402.668 257.45 407.068 260.223 410.953C262.969 414.801 265.448 418.192 267.431 420.423L270.42 417.765ZM206.57 414.416C214.445 418.963 220.871 423.727 225.883 428.695L228.699 425.855C223.388 420.59 216.667 415.627 208.57 410.952L206.57 414.416ZM225.899 428.711C230.935 433.594 234.682 438.534 237.191 443.524L240.765 441.727C238.015 436.258 233.97 430.965 228.683 425.839L225.899 428.711ZM239.125 440.631L147.676 433.883L147.382 437.873L238.831 444.62L239.125 440.631ZM149.502 436.204L151.693 422.963L147.747 422.31L145.556 435.551L149.502 436.204ZM151.649 423.164C152.848 418.779 153.603 414.518 153.906 410.384L149.917 410.092C149.635 413.942 148.929 417.947 147.791 422.109L151.649 423.164ZM153.906 410.38C154.055 408.287 154.349 402.351 154.459 396.457C154.514 393.51 154.524 390.548 154.444 388.07C154.369 385.695 154.208 383.484 153.824 382.229L149.999 383.398C150.199 384.054 150.367 385.714 150.447 388.198C150.523 390.579 150.514 393.465 150.46 396.383C150.351 402.219 150.06 408.084 149.916 410.096L153.906 410.38ZM153.846 382.305C153.759 381.974 153.62 381.564 153.367 381.185C153.104 380.79 152.603 380.272 151.795 380.129C151.019 379.992 150.404 380.281 150.071 380.492C149.733 380.707 149.473 380.974 149.295 381.179C148.934 381.592 148.594 382.119 148.305 382.589C148.02 383.053 147.673 383.652 147.385 384.13C146.717 385.24 146.179 386.019 145.76 386.372C145.565 386.537 145.644 386.392 145.95 386.389C146.352 386.385 146.515 386.615 146.422 386.506L143.376 389.099C143.99 389.82 144.871 390.401 145.993 390.389C147.02 390.378 147.82 389.867 148.339 389.43C149.348 388.579 150.203 387.206 150.813 386.191C151.165 385.606 151.428 385.148 151.713 384.683C151.996 384.223 152.187 383.948 152.309 383.808C152.372 383.737 152.341 383.789 152.218 383.867C152.101 383.942 151.687 384.172 151.098 384.068C150.476 383.958 150.147 383.565 150.039 383.403C149.942 383.258 149.942 383.188 149.977 383.321L153.846 382.305ZM146.443 386.532C143.427 382.869 139.276 379.548 134.066 376.54L132.066 380.004C136.985 382.844 140.723 385.877 143.355 389.074L146.443 386.532ZM134.066 376.54C127.558 372.783 120.225 369.879 112.083 367.815L111.101 371.692C118.931 373.677 125.914 376.452 132.066 380.004L134.066 376.54ZM112.083 367.815C103.945 365.752 95.5643 364.636 86.9434 364.465L86.8638 368.464C95.1887 368.63 103.266 369.707 111.101 371.692L112.083 367.815ZM86.9298 364.465C78.2006 364.35 69.5695 365.267 61.0397 367.213L61.9299 371.113C70.1512 369.237 78.4659 368.354 86.8773 368.464L86.9298 364.465ZM61.0397 367.213C52.4785 369.168 44.5477 372.247 37.2573 376.456L39.2573 379.92C46.1858 375.92 53.74 372.983 61.9299 371.113L61.0397 367.213ZM37.2573 376.456C33.8561 378.42 29.9042 377.646 25.5079 376.634C23.4581 376.163 21.2145 375.623 19.2038 375.602C17.0946 375.581 14.9208 376.127 13.3099 378.09L16.4023 380.627C16.9827 379.92 17.7827 379.588 19.1634 379.602C20.6427 379.617 22.405 380.025 24.6107 380.532C28.7255 381.48 34.2829 382.792 39.2573 379.92L37.2573 376.456ZM13.3025 378.099C11.8772 379.857 11.1408 382.52 10.7161 385.225C10.2781 388.016 10.1217 391.222 10.0944 394.359C10.067 397.505 10.1694 400.646 10.2648 403.31C10.3621 406.025 10.4469 408.15 10.4016 409.407L14.399 409.551C14.451 408.109 14.3559 405.78 14.2623 403.167C14.1669 400.504 14.0677 397.442 14.0942 394.394C14.1208 391.336 14.274 388.354 14.6678 385.846C15.0749 383.252 15.6924 381.503 16.4097 380.618L13.3025 378.099ZM10.4031 409.372C10.08 415.403 12.1984 421.284 16.5035 426.965L19.6916 424.549C15.816 419.435 14.1362 414.463 14.3974 409.586L10.4031 409.372ZM16.5159 426.981C20.8181 432.54 27.2364 437.728 35.6504 442.586L37.6504 439.122C29.5081 434.421 23.5578 429.545 19.6792 424.533L16.5159 426.981ZM35.6504 442.586C40.3342 445.29 45.4059 447.643 50.8613 449.648L52.2407 445.893C46.9833 443.961 42.1211 441.703 37.6504 439.122L35.6504 442.586ZM50.8964 449.66C56.3373 451.545 62.2101 453.168 68.5119 454.532L69.3583 450.623C63.1942 449.288 57.4777 447.707 52.2057 445.88L50.8964 449.66ZM68.4891 454.527C73.7077 455.721 79.3587 456.77 85.4402 457.677L86.0296 453.72C80.0347 452.827 74.4859 451.796 69.3811 450.628L68.4891 454.527ZM85.4625 457.68C91.6256 458.527 98.1273 459.289 104.967 459.966L105.361 455.985C98.5665 455.313 92.1153 454.557 86.0073 453.717L85.4625 457.68ZM105.367 455.986L101.861 455.628L101.455 459.608L104.961 459.965L105.367 455.986ZM99.6582 457.618C99.6582 463.283 99.9493 471.423 99.6623 475.897L103.654 476.153C103.951 471.518 103.658 462.985 103.658 457.618H99.6582ZM99.66 475.938C99.4571 480.624 99.9131 485.125 101.038 489.434L104.908 488.424C103.89 484.524 103.47 480.423 103.656 476.111L99.66 475.938ZM101.051 489.484C102.499 494.499 105.074 499.235 108.731 503.693L111.823 501.155C108.468 497.066 106.174 492.806 104.894 488.375L101.051 489.484ZM108.757 503.723C112.548 508.16 117.762 512.26 124.324 516.048L126.324 512.584C120.031 508.951 115.213 505.122 111.798 501.125L108.757 503.723ZM218.11 492.173C213.605 494.775 208.821 496.67 203.752 497.862L204.668 501.756C210.117 500.474 215.266 498.434 220.11 495.637L218.11 492.173ZM203.764 497.86C198.761 499.004 193.715 499.521 188.621 499.412L188.536 503.411C193.96 503.527 199.335 502.976 204.656 501.759L203.764 497.86ZM188.621 499.412C183.521 499.303 178.518 498.595 173.609 497.286L172.579 501.152C177.798 502.542 183.118 503.296 188.536 503.411L188.621 499.412ZM173.648 497.297C168.73 495.877 164.206 493.971 160.07 491.583L158.07 495.047C162.504 497.607 167.329 499.637 172.539 501.14L173.648 497.297ZM160.07 491.583C158.221 490.515 156.306 489.197 154.327 487.618L151.833 490.746C153.944 492.429 156.023 493.865 158.07 495.047L160.07 491.583ZM154.377 487.66C152.478 486.041 150.744 484.096 149.179 481.811L145.879 484.071C147.625 486.621 149.592 488.837 151.783 490.704L154.377 487.66ZM149.179 481.811C147.673 479.611 146.492 476.961 145.664 473.827L141.797 474.849C142.722 478.35 144.074 481.435 145.879 484.071L149.179 481.811ZM145.652 473.783C144.771 470.732 144.628 467.475 145.26 463.983L141.324 463.27C140.593 467.313 140.742 471.197 141.809 474.893L145.652 473.783ZM145.261 463.979L145.699 461.533L141.762 460.828L141.324 463.274L145.261 463.979ZM143.574 463.174L241.012 470.85L241.326 466.862L143.888 459.187L143.574 463.174ZM239.248 468.301C238.699 470.201 237.967 472.051 237.05 473.852L240.614 475.668C241.644 473.645 242.471 471.559 243.091 469.41L239.248 468.301ZM237.1 473.76C236.055 475.57 234.913 477.383 233.674 479.199L236.978 481.454C238.271 479.559 239.466 477.661 240.564 475.76L237.1 473.76ZM233.77 479.069C231.802 481.504 229.545 483.84 226.995 486.076L229.632 489.084C232.341 486.709 234.759 484.209 236.881 481.584L233.77 479.069ZM227.041 486.037C224.409 488.208 221.434 490.255 218.11 492.173L220.11 495.637C223.604 493.62 226.765 491.45 229.586 489.123L227.041 486.037ZM70.2273 420.145C66.9399 418.247 64.3846 416.283 62.5092 414.272L59.5839 417C61.7989 419.375 64.6974 421.571 68.2273 423.609L70.2273 420.145ZM62.5427 414.309C60.6925 412.223 59.6878 410.173 59.3701 408.156L55.4188 408.778C55.8802 411.708 57.3102 414.438 59.5504 416.963L62.5427 414.309ZM59.3512 408.053C58.9893 406.34 59.3132 404.492 60.5671 402.416L57.1435 400.348C55.4756 403.108 54.8257 405.983 55.4376 408.88L59.3512 408.053ZM60.5671 402.416C61.7863 400.398 64.0515 398.33 67.5978 396.282L65.5978 392.818C61.7424 395.044 58.8459 397.53 57.1435 400.348L60.5671 402.416ZM67.5978 396.282C70.0009 394.895 72.7419 393.928 75.8438 393.401L75.1741 389.458C71.6535 390.056 68.4537 391.169 65.5978 392.818L67.5978 396.282ZM75.8438 393.401C78.9872 392.868 82.1793 392.734 85.4244 393.001L85.7532 389.015C82.181 388.72 78.6533 388.867 75.1741 389.458L75.8438 393.401ZM85.4533 393.003C88.6057 393.217 91.7664 393.807 94.938 394.776L96.1072 390.951C92.6562 389.896 89.1944 389.248 85.7244 389.013L85.4533 393.003ZM94.9524 394.78C98.0317 395.696 100.807 396.874 103.288 398.307L105.288 394.842C102.509 393.238 99.4412 391.942 96.0928 390.946L94.9524 394.78ZM103.288 398.307C104.584 399.055 106.089 400.031 107.809 401.245L110.116 397.977C108.329 396.716 106.719 395.669 105.288 394.842L103.288 398.307ZM107.801 401.239C109.293 402.303 110.553 403.535 111.593 404.936L114.805 402.552C113.507 400.803 111.943 399.28 110.124 397.983L107.801 401.239ZM111.643 405.001C112.781 406.409 113.523 408.057 113.858 409.989L117.799 409.306C117.355 406.74 116.343 404.452 114.754 402.486L111.643 405.001ZM113.858 409.989C114.175 411.819 113.959 414.06 113.054 416.775L116.849 418.039C117.893 414.907 118.261 411.975 117.799 409.306L113.858 409.989ZM113.002 416.962L109.496 432.312L113.396 433.203L116.902 417.852L113.002 416.962ZM111.695 430.773C107.232 430.213 103.015 429.625 99.0426 429.01L98.4303 432.963C102.444 433.584 106.7 434.177 111.197 434.742L111.695 430.773ZM99.0778 429.015C95.2232 428.348 91.6178 427.598 88.2605 426.767L87.2997 430.65C90.7596 431.506 94.4585 432.275 98.3951 432.957L99.0778 429.015ZM88.2525 426.765C84.6057 425.879 81.312 424.913 78.3674 423.871L77.033 427.642C80.1266 428.737 83.5529 429.74 87.3077 430.652L88.2525 426.765ZM78.3791 423.876C75.3594 422.786 72.6445 421.541 70.2273 420.145L68.2273 423.609C70.8743 425.137 73.8081 426.479 77.0214 427.638L78.3791 423.876ZM231.485 374.181L206.555 388.863L208.585 392.309L233.514 377.627L231.485 374.181ZM205.57 390.586V412.684H209.57V390.586H205.57ZM346.743 450.385V428.087H342.743V450.385H346.743ZM344.695 426.087L288.589 427.452L288.686 431.45L344.792 430.086L344.695 426.087Z" fill="#EFF1FB" mask="url(#path-14-inside-5_369_4)"/>
<mask id="path-16-inside-6_369_4" fill="white">
<path d="M125.324 491.861C133.699 496.697 142.903 500.324 152.934 502.741C162.965 505.047 173.24 506.087 183.758 505.862C194.276 505.637 204.892 504.063 215.604 501.139C226.317 498.215 236.543 493.942 246.282 488.319C252.32 484.833 257.433 481.206 261.621 477.439C266.004 473.671 269.656 469.764 272.578 465.715C274.233 463.185 275.645 460.57 276.814 457.871C278.08 455.116 279.103 452.333 279.882 449.521L304.278 451.293L344.744 427.93L282.804 423.375C281.245 414.041 276.619 405.129 268.925 396.639C261.329 388.092 251.054 380.08 238.102 372.601L207.57 390.229C215.556 394.84 222.13 399.703 227.291 404.82C232.453 409.824 236.349 414.941 238.978 420.17L147.529 413.423L149.72 400.181C150.889 395.908 151.619 391.775 151.911 387.783C152.204 383.678 151.765 379.714 150.597 375.891C149.623 372.18 147.724 368.665 144.899 365.348C142.075 361.918 138.131 358.741 133.066 355.817C126.736 352.162 119.578 349.323 111.592 347.299C103.606 345.275 95.3766 344.178 86.9036 344.009C78.3333 343.897 69.8604 344.797 61.4849 346.708C53.1093 348.62 45.3668 351.628 38.2573 355.733C29.8818 360.569 23.5028 365.657 19.1202 370.999C14.8351 376.284 12.5951 381.626 12.4003 387.024C12.1081 392.478 14.0072 397.904 18.0976 403.302C22.188 408.587 28.3723 413.62 36.6504 418.399C41.2277 421.042 46.1946 423.347 51.5511 425.315C56.9075 427.171 62.7022 428.773 68.9352 430.123C74.0969 431.304 79.6968 432.344 85.7349 433.243C91.8705 434.087 98.3469 434.846 105.164 435.521L104.288 439.232C102.827 444.236 101.95 449.015 101.658 453.57C101.463 458.068 101.902 462.37 102.973 466.474C104.336 471.197 106.771 475.696 110.277 479.969C113.881 484.186 118.896 488.15 125.324 491.861ZM219.11 471.45C214.436 474.149 209.469 476.117 204.21 477.354C199.048 478.535 193.838 479.069 188.579 478.957C183.32 478.844 178.158 478.113 173.094 476.764C168.029 475.302 163.355 473.334 159.07 470.86C157.122 469.735 155.125 468.358 153.08 466.727C151.035 464.984 149.185 462.904 147.529 460.486C145.873 458.068 144.607 455.2 143.731 451.883C142.757 448.509 142.611 444.939 143.292 441.172L143.731 438.726L241.169 446.401C240.585 448.425 239.806 450.393 238.832 452.305C237.761 454.16 236.592 456.016 235.326 457.871C233.281 460.402 230.943 462.819 228.314 465.125C225.587 467.374 222.519 469.482 219.11 471.45ZM69.2273 399.422C65.8187 397.454 63.0918 395.374 61.0466 393.181C59.0014 390.876 57.784 388.486 57.3945 386.012C56.9075 383.706 57.3945 381.345 58.8553 378.927C60.3162 376.509 62.897 374.232 66.5978 372.095C69.2274 370.577 72.1977 369.537 75.509 368.975C78.8203 368.412 82.1802 368.272 85.5889 368.553C88.9001 368.778 92.2114 369.396 95.5226 370.408C98.7365 371.364 101.658 372.601 104.288 374.12C105.651 374.907 107.209 375.919 108.962 377.156C110.618 378.337 112.03 379.714 113.199 381.289C114.562 382.975 115.439 384.943 115.828 387.193C116.218 389.442 115.926 392.028 114.952 394.952L111.446 410.302C106.966 409.74 102.729 409.15 98.7365 408.531C94.8409 407.856 91.1888 407.097 87.7801 406.254C84.0793 405.354 80.7194 404.37 77.7003 403.302C74.5838 402.177 71.7595 400.884 69.2273 399.422Z"/>
</mask>
<path d="M125.324 491.861C133.699 496.697 142.903 500.324 152.934 502.741C162.965 505.047 173.24 506.087 183.758 505.862C194.276 505.637 204.892 504.063 215.604 501.139C226.317 498.215 236.543 493.942 246.282 488.319C252.32 484.833 257.433 481.206 261.621 477.439C266.004 473.671 269.656 469.764 272.578 465.715C274.233 463.185 275.645 460.57 276.814 457.871C278.08 455.116 279.103 452.333 279.882 449.521L304.278 451.293L344.744 427.93L282.804 423.375C281.245 414.041 276.619 405.129 268.925 396.639C261.329 388.092 251.054 380.08 238.102 372.601L207.57 390.229C215.556 394.84 222.13 399.703 227.291 404.82C232.453 409.824 236.349 414.941 238.978 420.17L147.529 413.423L149.72 400.181C150.889 395.908 151.619 391.775 151.911 387.783C152.204 383.678 151.765 379.714 150.597 375.891C149.623 372.18 147.724 368.665 144.899 365.348C142.075 361.918 138.131 358.741 133.066 355.817C126.736 352.162 119.578 349.323 111.592 347.299C103.606 345.275 95.3766 344.178 86.9036 344.009C78.3333 343.897 69.8604 344.797 61.4849 346.708C53.1093 348.62 45.3668 351.628 38.2573 355.733C29.8818 360.569 23.5028 365.657 19.1202 370.999C14.8351 376.284 12.5951 381.626 12.4003 387.024C12.1081 392.478 14.0072 397.904 18.0976 403.302C22.188 408.587 28.3723 413.62 36.6504 418.399C41.2277 421.042 46.1946 423.347 51.5511 425.315C56.9075 427.171 62.7022 428.773 68.9352 430.123C74.0969 431.304 79.6968 432.344 85.7349 433.243C91.8705 434.087 98.3469 434.846 105.164 435.521L104.288 439.232C102.827 444.236 101.95 449.015 101.658 453.57C101.463 458.068 101.902 462.37 102.973 466.474C104.336 471.197 106.771 475.696 110.277 479.969C113.881 484.186 118.896 488.15 125.324 491.861ZM219.11 471.45C214.436 474.149 209.469 476.117 204.21 477.354C199.048 478.535 193.838 479.069 188.579 478.957C183.32 478.844 178.158 478.113 173.094 476.764C168.029 475.302 163.355 473.334 159.07 470.86C157.122 469.735 155.125 468.358 153.08 466.727C151.035 464.984 149.185 462.904 147.529 460.486C145.873 458.068 144.607 455.2 143.731 451.883C142.757 448.509 142.611 444.939 143.292 441.172L143.731 438.726L241.169 446.401C240.585 448.425 239.806 450.393 238.832 452.305C237.761 454.16 236.592 456.016 235.326 457.871C233.281 460.402 230.943 462.819 228.314 465.125C225.587 467.374 222.519 469.482 219.11 471.45ZM69.2273 399.422C65.8187 397.454 63.0918 395.374 61.0466 393.181C59.0014 390.876 57.784 388.486 57.3945 386.012C56.9075 383.706 57.3945 381.345 58.8553 378.927C60.3162 376.509 62.897 374.232 66.5978 372.095C69.2274 370.577 72.1977 369.537 75.509 368.975C78.8203 368.412 82.1802 368.272 85.5889 368.553C88.9001 368.778 92.2114 369.396 95.5226 370.408C98.7365 371.364 101.658 372.601 104.288 374.12C105.651 374.907 107.209 375.919 108.962 377.156C110.618 378.337 112.03 379.714 113.199 381.289C114.562 382.975 115.439 384.943 115.828 387.193C116.218 389.442 115.926 392.028 114.952 394.952L111.446 410.302C106.966 409.74 102.729 409.15 98.7365 408.531C94.8409 407.856 91.1888 407.097 87.7801 406.254C84.0793 405.354 80.7194 404.37 77.7003 403.302C74.5838 402.177 71.7595 400.884 69.2273 399.422Z" fill="white"/>
<path d="M125.324 491.861L126.324 490.129L126.324 490.129L125.324 491.861ZM152.934 502.741L152.465 504.686L152.476 504.688L152.486 504.691L152.934 502.741ZM183.758 505.862L183.801 507.862L183.801 507.862L183.758 505.862ZM246.282 488.319L247.282 490.051L247.282 490.051L246.282 488.319ZM261.621 477.439L260.317 475.922L260.3 475.937L260.284 475.952L261.621 477.439ZM272.578 465.715L274.199 466.886L274.226 466.848L274.251 466.81L272.578 465.715ZM276.814 457.871L274.997 457.036L274.988 457.056L274.979 457.077L276.814 457.871ZM279.882 449.521L280.027 447.527L278.392 447.408L277.954 448.987L279.882 449.521ZM304.278 451.293L304.133 453.287L304.746 453.332L305.278 453.025L304.278 451.293ZM344.744 427.93L345.744 429.662L351.373 426.412L344.89 425.935L344.744 427.93ZM282.804 423.375L280.831 423.705L281.09 425.255L282.657 425.37L282.804 423.375ZM268.925 396.639L267.431 397.968L267.437 397.975L267.443 397.982L268.925 396.639ZM238.102 372.601L239.102 370.869L238.102 370.292L237.102 370.869L238.102 372.601ZM207.57 390.229L206.57 388.497L203.57 390.229L206.57 391.961L207.57 390.229ZM227.291 404.82L225.883 406.24L225.891 406.248L225.899 406.256L227.291 404.82ZM238.978 420.17L238.831 422.165L242.35 422.425L240.765 419.272L238.978 420.17ZM147.529 413.423L145.556 413.096L145.198 415.256L147.382 415.418L147.529 413.423ZM149.72 400.181L147.791 399.654L147.764 399.753L147.747 399.855L149.72 400.181ZM151.911 387.783L153.906 387.929L153.906 387.925L151.911 387.783ZM150.597 375.891L148.662 376.398L148.672 376.437L148.684 376.475L150.597 375.891ZM144.899 365.348L143.355 366.619L143.366 366.632L143.376 366.644L144.899 365.348ZM133.066 355.817L134.066 354.085L134.066 354.085L133.066 355.817ZM111.592 347.299L111.101 349.237L111.101 349.237L111.592 347.299ZM86.9036 344.009L86.9434 342.01L86.9299 342.01L86.9036 344.009ZM61.4849 346.708L61.9299 348.658L61.9299 348.658L61.4849 346.708ZM38.2573 355.733L39.2573 357.465L39.2573 357.465L38.2573 355.733ZM19.1202 370.999L17.574 369.73L17.5667 369.739L19.1202 370.999ZM12.4003 387.024L14.3974 387.131L14.3984 387.113L14.399 387.096L12.4003 387.024ZM18.0976 403.302L16.5036 404.51L16.5097 404.518L16.5159 404.526L18.0976 403.302ZM36.6504 418.399L37.6504 416.667L37.6504 416.667L36.6504 418.399ZM51.5511 425.315L50.8613 427.193L50.8788 427.199L50.8964 427.205L51.5511 425.315ZM68.9352 430.123L69.3812 428.173L69.3698 428.17L69.3584 428.168L68.9352 430.123ZM85.7349 433.243L85.4402 435.222L85.4514 435.223L85.4626 435.225L85.7349 433.243ZM105.164 435.521L107.111 435.98L107.636 433.756L105.361 433.53L105.164 435.521ZM104.288 439.232L106.208 439.792L106.222 439.742L106.234 439.691L104.288 439.232ZM101.658 453.57L99.6623 453.442L99.661 453.463L99.6601 453.483L101.658 453.57ZM102.973 466.474L101.038 466.979L101.044 467.004L101.051 467.029L102.973 466.474ZM110.277 479.969L108.731 481.238L108.744 481.253L108.757 481.268L110.277 479.969ZM219.11 471.45L218.11 469.718L218.11 469.718L219.11 471.45ZM204.21 477.354L204.656 479.304L204.668 479.301L204.21 477.354ZM188.579 478.957L188.536 480.956L188.536 480.956L188.579 478.957ZM173.094 476.764L172.539 478.685L172.559 478.691L172.579 478.697L173.094 476.764ZM159.07 470.86L160.07 469.128L160.07 469.128L159.07 470.86ZM153.08 466.727L151.783 468.249L151.808 468.271L151.833 468.291L153.08 466.727ZM147.529 460.486L149.179 459.356L149.179 459.356L147.529 460.486ZM143.731 451.883L145.664 451.372L145.659 451.35L145.652 451.328L143.731 451.883ZM143.292 441.172L145.26 441.528L145.261 441.524L143.292 441.172ZM143.731 438.726L143.888 436.732L142.082 436.59L141.762 438.373L143.731 438.726ZM241.169 446.401L243.091 446.955L243.771 444.599L241.326 444.407L241.169 446.401ZM238.832 452.305L240.564 453.305L240.59 453.259L240.614 453.213L238.832 452.305ZM235.326 457.871L236.881 459.129L236.932 459.066L236.978 458.999L235.326 457.871ZM228.314 465.125L229.586 466.668L229.61 466.648L229.632 466.629L228.314 465.125ZM69.2273 399.422L68.2273 401.154L68.2273 401.154L69.2273 399.422ZM61.0466 393.181L59.5505 394.508L59.567 394.527L59.584 394.545L61.0466 393.181ZM57.3945 386.012L59.3701 385.701L59.362 385.649L59.3513 385.598L57.3945 386.012ZM66.5978 372.095L67.5978 373.827L67.5978 373.827L66.5978 372.095ZM85.5889 368.553L85.4245 370.546L85.4389 370.547L85.4533 370.548L85.5889 368.553ZM95.5226 370.408L94.938 372.321L94.9452 372.323L94.9525 372.325L95.5226 370.408ZM104.288 374.12L105.288 372.387L105.288 372.387L104.288 374.12ZM108.962 377.156L110.124 375.528L110.116 375.522L108.962 377.156ZM113.199 381.289L111.593 382.481L111.618 382.514L111.643 382.546L113.199 381.289ZM115.828 387.193L117.799 386.851L117.799 386.851L115.828 387.193ZM114.952 394.952L113.054 394.32L113.024 394.412L113.002 394.507L114.952 394.952ZM111.446 410.302L111.197 412.287L112.993 412.512L113.396 410.748L111.446 410.302ZM98.7365 408.531L98.3952 410.502L98.4127 410.505L98.4304 410.508L98.7365 408.531ZM87.7801 406.254L88.2605 404.312L88.2526 404.31L87.7801 406.254ZM77.7003 403.302L77.0214 405.183L77.0331 405.187L77.7003 403.302ZM124.324 493.593C132.876 498.531 142.26 502.226 152.465 504.686L153.403 500.797C143.545 498.421 134.523 494.863 126.324 490.129L124.324 493.593ZM152.486 504.691C162.682 507.034 173.121 508.09 183.801 507.862L183.715 503.862C173.358 504.084 163.249 503.06 153.382 500.792L152.486 504.691ZM183.801 507.862C194.491 507.633 205.269 506.033 216.131 503.068L215.078 499.209C204.514 502.093 194.061 503.641 183.715 503.862L183.801 507.862ZM216.131 503.068C227.012 500.099 237.397 495.758 247.282 490.051L245.282 486.587C235.69 492.125 225.623 496.331 215.078 499.209L216.131 503.068ZM247.282 490.051C253.414 486.511 258.646 482.805 262.959 478.926L260.284 475.952C256.221 479.607 251.227 483.155 245.282 486.587L247.282 490.051ZM262.925 478.955C267.408 475.101 271.173 471.08 274.199 466.886L270.956 464.545C268.139 468.447 264.599 472.242 260.317 475.922L262.925 478.955ZM274.251 466.81C275.967 464.187 277.434 461.472 278.649 458.666L274.979 457.077C273.857 459.668 272.499 462.182 270.904 464.62L274.251 466.81ZM278.631 458.706C279.94 455.858 281 452.974 281.809 450.056L277.954 448.987C277.205 451.692 276.22 454.374 274.997 457.036L278.631 458.706ZM279.737 451.516L304.133 453.287L304.423 449.298L280.027 447.527L279.737 451.516ZM305.278 453.025L345.744 429.662L343.744 426.198L303.278 449.561L305.278 453.025ZM344.89 425.935L282.95 421.381L282.657 425.37L344.597 429.924L344.89 425.935ZM284.776 423.046C283.143 413.261 278.304 404.01 270.408 395.296L267.443 397.982C274.935 406.249 279.348 414.822 280.831 423.705L284.776 423.046ZM270.42 395.31C262.645 386.563 252.186 378.424 239.102 370.869L237.102 374.333C249.923 381.736 260.013 389.622 267.431 397.968L270.42 395.31ZM237.102 370.869L206.57 388.497L208.57 391.961L239.102 374.333L237.102 370.869ZM206.57 391.961C214.445 396.508 220.871 401.272 225.883 406.24L228.699 403.4C223.388 398.135 216.667 393.172 208.57 388.497L206.57 391.961ZM225.899 406.256C230.935 411.139 234.682 416.079 237.191 421.069L240.765 419.272C238.015 413.803 233.97 408.51 228.683 403.384L225.899 406.256ZM239.125 418.176L147.676 411.428L147.382 415.418L238.831 422.165L239.125 418.176ZM149.502 413.75L151.693 400.508L147.747 399.855L145.556 413.096L149.502 413.75ZM151.649 400.709C152.849 396.324 153.604 392.063 153.906 387.929L149.917 387.637C149.635 391.487 148.929 395.492 147.791 399.654L151.649 400.709ZM153.906 387.925C154.215 383.582 153.752 379.372 152.509 375.306L148.684 376.475C149.779 380.057 150.192 383.774 149.916 387.641L153.906 387.925ZM152.531 375.383C151.471 371.344 149.415 367.566 146.422 364.051L143.376 366.644C146.033 369.764 147.774 373.015 148.662 376.398L152.531 375.383ZM146.443 364.077C143.427 360.414 139.276 357.093 134.066 354.085L132.066 357.549C136.985 360.389 140.723 363.422 143.355 366.619L146.443 364.077ZM134.066 354.085C127.558 350.328 120.225 347.424 112.083 345.36L111.101 349.237C118.931 351.222 125.914 353.997 132.066 357.549L134.066 354.085ZM112.083 345.36C103.946 343.297 95.5643 342.181 86.9434 342.01L86.8638 346.009C95.1888 346.175 103.267 347.252 111.101 349.237L112.083 345.36ZM86.9299 342.01C78.2007 341.895 69.5695 342.812 61.0398 344.758L61.9299 348.658C70.1512 346.782 78.466 345.899 86.8774 346.009L86.9299 342.01ZM61.0398 344.758C52.4785 346.713 44.5478 349.792 37.2573 354.001L39.2573 357.465C46.1858 353.465 53.7401 350.528 61.9299 348.658L61.0398 344.758ZM37.2573 354.001C28.7504 358.912 22.157 364.144 17.574 369.73L20.6664 372.267C24.8485 367.17 31.0132 362.225 39.2573 357.465L37.2573 354.001ZM17.5667 369.739C13.0801 375.273 10.6157 381.019 10.4016 386.952L14.399 387.096C14.5745 382.233 16.59 377.295 20.6738 372.258L17.5667 369.739ZM10.4032 386.917C10.0801 392.948 12.1985 398.829 16.5036 404.51L19.6917 402.094C15.816 396.98 14.1362 392.008 14.3974 387.131L10.4032 386.917ZM16.5159 404.526C20.8182 410.085 27.2364 415.273 35.6504 420.131L37.6504 416.667C29.5081 411.966 23.5578 407.09 19.6793 402.078L16.5159 404.526ZM35.6504 420.131C40.3343 422.835 45.4059 425.188 50.8613 427.193L52.2408 423.438C46.9833 421.506 42.1212 419.248 37.6504 416.667L35.6504 420.131ZM50.8964 427.205C56.3373 429.09 62.2102 430.713 68.512 432.077L69.3584 428.168C63.1943 426.833 57.4777 425.252 52.2057 423.425L50.8964 427.205ZM68.4892 432.072C73.7078 433.266 79.3587 434.315 85.4402 435.222L86.0297 431.265C80.0348 430.372 74.486 429.341 69.3812 428.173L68.4892 432.072ZM85.4626 435.225C91.6257 436.072 98.1274 436.834 104.967 437.511L105.361 433.53C98.5665 432.858 92.1153 432.102 86.0073 431.262L85.4626 435.225ZM103.218 435.061L102.341 438.772L106.234 439.691L107.111 435.98L103.218 435.061ZM102.368 438.671C100.872 443.797 99.9651 448.722 99.6623 453.442L103.654 453.698C103.936 449.309 104.782 444.675 106.208 439.792L102.368 438.671ZM99.6601 453.483C99.4572 458.169 99.9131 462.67 101.038 466.979L104.908 465.969C103.89 462.069 103.47 457.968 103.656 453.656L99.6601 453.483ZM101.051 467.029C102.499 472.044 105.074 476.78 108.731 481.238L111.823 478.7C108.468 474.611 106.174 470.351 104.895 465.92L101.051 467.029ZM108.757 481.268C112.548 485.705 117.762 489.805 124.324 493.593L126.324 490.129C120.031 486.496 115.213 482.667 111.798 478.67L108.757 481.268ZM218.11 469.718C213.605 472.319 208.821 474.215 203.752 475.407L204.668 479.301C210.117 478.019 215.266 475.979 220.11 473.182L218.11 469.718ZM203.764 475.405C198.761 476.549 193.715 477.066 188.621 476.957L188.536 480.956C193.96 481.072 199.335 480.521 204.656 479.304L203.764 475.405ZM188.621 476.957C183.521 476.848 178.518 476.14 173.609 474.831L172.579 478.697C177.798 480.087 183.118 480.841 188.536 480.956L188.621 476.957ZM173.648 474.842C168.73 473.422 164.206 471.516 160.07 469.128L158.07 472.592C162.504 475.152 167.329 477.182 172.539 478.685L173.648 474.842ZM160.07 469.128C158.221 468.06 156.306 466.742 154.327 465.163L151.833 468.291C153.944 469.974 156.023 471.41 158.07 472.592L160.07 469.128ZM154.377 465.205C152.478 463.586 150.744 461.641 149.179 459.356L145.879 461.616C147.625 464.166 149.592 466.382 151.783 468.249L154.377 465.205ZM149.179 459.356C147.673 457.156 146.492 454.506 145.664 451.372L141.797 452.394C142.722 455.895 144.074 458.98 145.879 461.616L149.179 459.356ZM145.652 451.328C144.771 448.277 144.629 445.02 145.26 441.528L141.324 440.815C140.593 444.858 140.742 448.742 141.809 452.438L145.652 451.328ZM145.261 441.524L145.699 439.078L141.762 438.373L141.324 440.819L145.261 441.524ZM143.574 440.719L241.012 448.395L241.326 444.407L143.888 436.732L143.574 440.719ZM239.248 445.846C238.699 447.746 237.967 449.596 237.05 451.397L240.614 453.213C241.644 451.19 242.471 449.104 243.091 446.955L239.248 445.846ZM237.1 451.305C236.055 453.115 234.913 454.928 233.674 456.744L236.978 458.999C238.271 457.104 239.466 455.206 240.564 453.305L237.1 451.305ZM233.77 456.614C231.802 459.049 229.545 461.385 226.995 463.621L229.632 466.629C232.341 464.254 234.759 461.754 236.881 459.129L233.77 456.614ZM227.041 463.582C224.409 465.753 221.434 467.8 218.11 469.718L220.11 473.182C223.604 471.165 226.765 468.995 229.586 466.668L227.041 463.582ZM70.2273 397.69C66.9399 395.792 64.3846 393.828 62.5092 391.817L59.584 394.545C61.7989 396.92 64.6975 399.116 68.2273 401.154L70.2273 397.69ZM62.5427 391.854C60.6926 389.768 59.6878 387.718 59.3701 385.701L55.4188 386.323C55.8802 389.253 57.3102 391.983 59.5505 394.508L62.5427 391.854ZM59.3513 385.598C58.9893 383.885 59.3132 382.037 60.5671 379.961L57.1435 377.893C55.4757 380.653 54.8257 383.528 55.4376 386.425L59.3513 385.598ZM60.5671 379.961C61.7863 377.943 64.0516 375.875 67.5978 373.827L65.5978 370.363C61.7424 372.589 58.846 375.075 57.1435 377.893L60.5671 379.961ZM67.5978 373.827C70.0009 372.44 72.742 371.473 75.8438 370.946L75.1742 367.003C71.6535 367.601 68.4538 368.714 65.5978 370.363L67.5978 373.827ZM75.8438 370.946C78.9872 370.413 82.1794 370.279 85.4245 370.546L85.7533 366.56C82.181 366.265 78.6533 366.412 75.1742 367.003L75.8438 370.946ZM85.4533 370.548C88.6058 370.762 91.7665 371.352 94.938 372.321L96.1073 368.496C92.6563 367.441 89.1945 366.793 85.7244 366.558L85.4533 370.548ZM94.9525 372.325C98.0317 373.241 100.807 374.419 103.288 375.852L105.288 372.387C102.509 370.783 99.4413 369.487 96.0928 368.491L94.9525 372.325ZM103.288 375.852C104.584 376.6 106.089 377.576 107.809 378.79L110.116 375.522C108.329 374.261 106.719 373.214 105.288 372.387L103.288 375.852ZM107.801 378.784C109.293 379.848 110.553 381.08 111.593 382.481L114.805 380.097C113.507 378.348 111.943 376.825 110.124 375.528L107.801 378.784ZM111.643 382.546C112.781 383.954 113.523 385.602 113.858 387.534L117.799 386.851C117.355 384.285 116.343 381.997 114.754 380.031L111.643 382.546ZM113.858 387.534C114.175 389.364 113.959 391.605 113.054 394.32L116.849 395.584C117.893 392.452 118.261 389.52 117.799 386.851L113.858 387.534ZM113.002 394.507L109.496 409.857L113.396 410.748L116.902 395.397L113.002 394.507ZM111.695 408.318C107.232 407.758 103.015 407.17 99.0427 406.555L98.4304 410.508C102.444 411.129 106.7 411.722 111.197 412.287L111.695 408.318ZM99.0778 406.56C95.2232 405.893 91.6179 405.143 88.2605 404.312L87.2998 408.195C90.7597 409.051 94.4586 409.82 98.3952 410.502L99.0778 406.56ZM88.2526 404.31C84.6057 403.424 81.3121 402.458 78.3675 401.416L77.0331 405.187C80.1267 406.282 83.5529 407.285 87.3077 408.197L88.2526 404.31ZM78.3791 401.421C75.3595 400.331 72.6446 399.086 70.2273 397.69L68.2273 401.154C70.8744 402.682 73.8081 404.024 77.0214 405.183L78.3791 401.421Z" fill="#EFF1FB" mask="url(#path-16-inside-6_369_4)"/>
<path d="M304.184 450.18L304.184 472.635" stroke="#EFF1FB" stroke-width="2"/>
<path d="M452.746 253.662C465.486 261.018 486.142 261.018 498.883 253.662C505.253 249.984 508.438 245.165 508.438 240.344C508.438 239.956 508.478 238.966 508.53 237.649C508.597 235.996 508.684 233.826 508.739 231.678C508.79 229.735 508.814 227.801 508.777 226.249C508.758 225.472 508.724 224.797 508.671 224.269C508.63 223.863 508.58 223.578 508.532 223.404C508.381 223.518 508.21 223.658 508.018 223.823C507.77 224.036 507.517 224.265 507.246 224.511C507.099 224.645 506.946 224.783 506.786 224.927C505.928 225.695 504.859 226.607 503.654 227.147C503.035 227.425 502.262 227.659 501.369 227.667C500.434 227.676 499.596 227.437 498.883 227.025C486.142 219.669 465.486 219.669 452.746 227.025C451.999 227.456 451.137 227.715 450.178 227.719C449.245 227.723 448.445 227.485 447.808 227.194C446.575 226.631 445.526 225.672 444.701 224.869C444.511 224.683 444.335 224.508 444.168 224.341C443.946 224.12 443.738 223.914 443.529 223.715C443.437 223.627 443.35 223.547 443.269 223.474C443.242 223.639 443.214 223.877 443.189 224.193C443.147 224.715 443.117 225.392 443.096 226.175C443.055 227.741 443.051 229.715 443.065 231.693C443.083 234.244 443.13 236.818 443.161 238.511C443.178 239.431 443.19 240.091 443.19 240.344C443.19 245.165 446.375 249.984 452.746 253.662ZM508.297 222.976C508.297 222.976 508.297 222.976 508.299 222.977C508.297 222.976 508.297 222.976 508.297 222.976ZM443.536 222.853C443.536 222.853 443.533 222.854 443.53 222.858C443.534 222.855 443.536 222.853 443.536 222.853Z" fill="white" stroke="#EFF1FB" stroke-width="2"/>
<path d="M607.676 280.785L607.674 280.519C607.603 280.583 607.528 280.651 607.45 280.724C607.234 280.925 607.019 281.134 606.789 281.359C606.62 281.523 606.444 281.695 606.253 281.877C605.412 282.681 604.346 283.639 603.101 284.2C602.457 284.49 601.654 284.727 600.721 284.722C599.76 284.718 598.896 284.46 598.148 284.028C585.407 276.673 564.751 276.673 552.011 284.028C551.248 284.469 550.347 284.722 549.346 284.684C548.397 284.648 547.602 284.357 546.981 284.03C545.759 283.386 544.705 282.326 543.858 281.414C543.646 281.186 543.454 280.975 543.271 280.773C543.058 280.539 542.858 280.318 542.651 280.099C542.544 279.985 542.443 279.88 542.348 279.784C542.329 279.937 542.311 280.13 542.295 280.366C542.258 280.911 542.234 281.622 542.221 282.446C542.195 284.093 542.213 286.174 542.247 288.261C542.288 290.727 542.354 293.21 542.4 294.972C542.432 296.181 542.455 297.052 542.455 297.347C542.455 302.169 545.64 306.988 552.011 310.666C564.751 318.021 585.407 318.021 598.148 310.666C604.152 307.199 607.326 302.72 607.671 298.18C607.736 297.333 607.736 292.824 607.72 288.493C607.712 286.335 607.699 284.231 607.689 282.666C607.684 281.884 607.679 281.237 607.676 280.785ZM542.612 279.031C542.611 279.031 542.609 279.032 542.605 279.036C542.61 279.033 542.612 279.031 542.612 279.031ZM607.492 279.86C607.492 279.86 607.494 279.862 607.498 279.865C607.494 279.861 607.492 279.86 607.492 279.86Z" fill="white" stroke="#EFF1FB" stroke-width="2"/>
<circle r="26.6372" transform="matrix(-0.866025 0.5 0.866025 0.5 475.813 223.071)" fill="white" stroke="#EFF1FB" stroke-width="2"/>
<circle r="26.6372" transform="matrix(-0.866025 0.5 0.866025 0.5 575.078 280.072)" fill="white" stroke="#EFF1FB" stroke-width="2"/>
<path d="M487.101 205.797L444.781 226.525C446.163 231.361 452.842 235.449 456.009 236.889L499.192 210.979C495.737 208.215 489.692 206.373 487.101 205.797Z" fill="white"/>
</svg>
