<svg width="320" height="82" viewBox="0 0 320 82" fill="none" xmlns="http://www.w3.org/2000/svg">
<path d="M192.05 71.0735V17.9868H216.26V9H157.898V17.9868H182.2V71.0735H192.05Z" fill="currentColor"/>
<path d="M228.315 72C243.596 72 253.814 62.2721 253.814 48.0971C253.814 33.7368 243.596 24.1015 228.315 24.1015C213.126 24.1015 202.909 33.7368 202.909 48.0971C202.909 62.2721 213.126 72 228.315 72ZM228.315 63.1059C217.269 63.1059 212.666 57.825 212.666 48.0971C212.666 38.2765 217.269 32.9029 228.315 32.9029C239.453 32.9029 244.056 38.2765 244.056 48.0971C244.056 57.825 239.453 63.1059 228.315 63.1059Z" fill="currentColor"/>
<path d="M275.51 19.6544V9H265.569V19.6544H275.51ZM275.51 71.0735V25.0279H265.569V71.0735H275.51Z" fill="currentColor"/>
<path d="M319.898 71.0735V62.0868H311.614C305.907 62.0868 303.329 60.6044 303.329 54.9529V33.3662H319.898V25.0279H303.329V9H293.479V25.0279H285.747V33.3662H293.479V55.5088C293.479 66.7191 299.555 71.0735 309.404 71.0735H319.898Z" fill="currentColor"/>
<path fill-rule="evenodd" clip-rule="evenodd" d="M0.124137 3.45564C0.623021 1.36689 2.50342 -0.0306731 4.5649 0.000511594C4.93352 -0.00501495 5.30881 0.0350007 5.68381 0.124824L52.7963 11.4094L52.7978 11.4098L52.7991 11.4101C53.0754 11.4761 53.3487 11.5486 53.6191 11.6274C58.7428 12.9315 64.2593 12.9315 69.383 11.6274C69.6533 11.5486 69.9267 11.4761 70.203 11.4101L70.2043 11.4098L70.2058 11.4094L117.318 0.124825C117.693 0.0350022 118.069 -0.00501399 118.437 0.000511594C120.499 -0.0306774 122.379 1.36688 122.878 3.45564C123.455 5.87293 121.964 8.30056 119.546 8.87792L72.3753 20.1444C72.1811 20.198 71.9864 20.2502 71.7914 20.3008C68.3643 21.3518 66.001 24.5159 66.001 28.1196V33.8805C66.001 36.5999 66.7869 39.2624 68.2654 41.5488L86.1953 69.276C88.3046 72.5378 92.9374 72.9457 95.5868 70.0958L115.205 48.993C116.897 47.1728 119.745 47.069 121.565 48.7611C123.385 50.4533 123.489 53.3007 121.797 55.1209L102.178 76.2237C95.5381 83.3664 83.9346 82.3542 78.6378 74.1631L62.3408 48.961C61.9467 48.3517 61.0553 48.3517 60.6613 48.961L44.3643 74.1631C39.0675 82.3542 27.4639 83.3664 20.8237 76.2237L1.20524 55.1209C-0.486932 53.3007 -0.383137 50.4533 1.43707 48.7611C3.25729 47.069 6.10464 47.1728 7.79681 48.993L27.4153 70.0958C30.0647 72.9457 34.6975 72.5378 36.8067 69.276L54.7366 41.5488C56.2151 39.2624 57.001 36.5999 57.001 33.8805V28.1196C57.001 24.5159 54.6377 21.3518 51.2107 20.3008C51.0156 20.2502 50.8209 20.198 50.6267 20.1444L3.45564 8.87792C1.03835 8.30056 -0.453215 5.87293 0.124137 3.45564Z" fill="currentColor"/>
</svg>
